<?xml version="1.0" encoding="UTF-8" standalone="no"?> <svg xmlns:dc="http://purl.org/dc/elements/1.1/" xmlns:cc="http://creativecommons.org/ns#" xmlns:rdf="http://www.w3.org/1999/02/22-rdf-syntax-ns#" xmlns:svg="http://www.w3.org/2000/svg" xmlns="http://www.w3.org/2000/svg" viewBox="0 0 167.33333 83.333336" height="83.333336" width="167.33333" xml:space="preserve" id="svg2"> <metadata id="metadata8"></metadata> <defs id="defs6"> <clipPath id="clipPath20" clipPathUnits="userSpaceOnUse"> <path id="path18" d="M 0,62.5 H 125.5 V 0 H 0 Z"></path> </clipPath> </defs> <g transform="matrix(1.3333333,0,0,-1.3333333,0,83.333333)" id="g10"> <path id="path12" style="fill:#58a646;fill-opacity:1;fill-rule:nonzero;stroke:none" d="m 2.811,1.675 h 58.25 V 59.926 H 2.811 Z"></path> <g id="g14"> <g clip-path="url(#clipPath20)" id="g16"> <g transform="translate(2.8408,20.418)" id="g22"> <path id="path24" style="fill:#63656b;fill-opacity:1;fill-rule:nonzero;stroke:none" d="M 0,0 -0.03,-0.024 V -0.186 L 0,-0.18 c 5.42,1.243 10.044,4.459 13.125,8.819 0.156,0.347 0.315,0.694 0.48,1.039 C 10.562,4.902 5.729,1.347 0,0"></path> </g> <g transform="translate(19.9897,42.9941)" id="g26"> <path id="path28" style="fill:#63656b;fill-opacity:1;fill-rule:nonzero;stroke:none" d="m 0,0 c -0.244,4.635 -1.895,8.863 -4.517,12.292 2.555,-3.401 4.163,-7.572 4.402,-12.14 0.181,-3.463 -0.442,-6.779 -1.707,-9.771 0.172,0.297 0.347,0.594 0.524,0.887 C -0.311,-6.019 0.161,-3.065 0,0"></path> </g> <g transform="translate(56.4087,56.9546)" id="g30"> <path id="path32" style="fill:#ffffff;fill-opacity:1;fill-rule:nonzero;stroke:#ffffff;stroke-width:0.1;stroke-linecap:butt;stroke-linejoin:miter;stroke-miterlimit:10;stroke-dasharray:none;stroke-opacity:1" d="m 0,0 c -16.217,-0.852 -30.086,-9.806 -37.892,-22.733 1.03,2.751 1.526,5.76 1.359,8.875 -0.363,6.973 -3.929,13.024 -9.204,16.828 h -0.751 c 5.461,-3.736 9.152,-9.823 9.524,-16.852 0.558,-10.589 -6.598,-19.805 -16.603,-22.233 l -0.034,-0.01 -0.002,-0.447 0.036,0.009 c 5.392,1.271 10.029,4.51 13.08,8.875 -2.993,-6.625 -4.491,-14.046 -4.086,-21.812 0.107,-1.937 0.329,-3.853 0.664,-5.781 h 0.438 c -0.337,1.893 -0.566,3.841 -0.667,5.806 -1.345,25.731 18.425,47.692 44.163,49.041 1.533,0.078 3.076,0.09 4.657,0.017 V 0.018 C 3.141,0.086 1.574,0.076 0,0"></path> </g> <g transform="translate(15.5415,37.4536)" id="g34"> <path id="path36" style="fill:#63656b;fill-opacity:1;fill-rule:nonzero;stroke:none" d="M 0,0 C -0.692,0 -1.375,-0.086 -2.063,-0.238 V -12.03 l -0.237,0.047 v 12.04 c 0.692,0.15 1.376,0.236 2.064,0.236 2.386,0 4.191,-0.73 5.259,-2.199 C 3.935,-0.632 2.225,0 0,0 m -5.349,1.592 c -0.135,0.131 -0.303,0.23 -0.515,0.294 l 0.201,0.073 C -5.537,1.861 -5.435,1.736 -5.349,1.592 M 7.703,-0.972 c 1.106,-1.323 1.713,-3.05 1.713,-5.09 0,-4.898 -3.752,-8.327 -9.314,-8.327 h -5.896 l -0.108,0.003 c 0.109,0.151 0.239,0.216 0.331,0.303 h 5.437 c 5.561,0 9.314,3.427 9.314,8.317 0,1.896 -0.524,3.515 -1.477,4.794"></path> </g> <g transform="translate(26.6289,39.4126)" id="g38"> <path id="path40" style="fill:#63656b;fill-opacity:1;fill-rule:nonzero;stroke:none" d="M 0,0 H 0.164 C 0.299,-0.108 0.409,-0.235 0.493,-0.378 0.357,-0.251 0.2,-0.15 0,-0.073 Z m 11.541,-1.565 c 0.599,-0.667 0.898,-1.508 0.898,-2.435 0,-2.182 -1.909,-3.902 -3.948,-4.376 l -0.238,0.302 c 2.029,0.474 3.955,2.185 3.955,4.377 0,0.792 -0.227,1.522 -0.667,2.132 m 4.097,-14.478 c 0.15,-0.108 0.303,-0.21 0.453,-0.305 h -2.46 c -1.317,0 -2.131,0.319 -2.882,1.248 0,0 -1.619,2.006 -2.986,3.714 1.31,-1.643 2.751,-3.42 2.751,-3.42 0.75,-0.919 1.568,-1.237 2.882,-1.237 z m -9.415,6.857 c -0.664,0.807 -1.442,1.467 -2.3,1.467 0.245,0 0.491,0.01 0.733,0.024 0.58,-0.318 1.106,-0.884 1.567,-1.491 m 2.875,6.559 C 8.507,-1.994 7.588,-1.701 6.704,-1.701 6.131,-1.726 4.396,-1.802 3.821,-1.894 v -5.524 -5.449 c 0,-1.459 0.05,-2.203 0.298,-2.655 -0.455,0.404 -0.533,1.111 -0.533,2.948 v 10.975 c 0.563,0.101 2.307,0.171 2.882,0.2 1.019,0 2.074,-0.39 2.63,-1.228 m -4.4,-13.416 c 0.159,-0.086 0.337,-0.153 0.557,-0.228 L 0,-16.348 c 0.164,0.133 0.299,0.21 0.416,0.305 z"></path> </g> <g transform="translate(54.7212,39.189)" id="g42"> <path id="path44" style="fill:#63656b;fill-opacity:1;fill-rule:nonzero;stroke:none" d="m 0,0 v -3.061 c -1.367,0.873 -2.959,1.452 -4.591,1.452 -3.339,0 -5.648,-2.346 -5.648,-5.942 0,-1.638 0.506,-3.155 1.383,-4.344 -1.03,1.223 -1.618,2.867 -1.618,4.646 0,3.597 2.307,5.942 5.645,5.942 1.644,0 3.23,-0.581 4.594,-1.45 V 0.059 Z M 0.827,-12.938 1.198,-12.736 0,-15.776 c -1.164,-0.544 -2.453,-0.746 -3.748,-0.746 -3.551,0 -6.28,1.208 -7.882,3.339 1.627,-1.948 4.266,-3.036 7.646,-3.036 1.288,0 2.587,0.196 3.749,0.744 z"></path> </g> <g transform="translate(26.3975,39.71)" id="g46"> <path id="path48" style="fill:#ffffff;fill-opacity:1;fill-rule:nonzero;stroke:none" d="m 0,0 v -0.076 c 1.272,-0.473 1.094,-2.279 1.094,-3.426 v -9.368 c 0,-1.113 0.178,-2.95 -1.094,-3.396 v -0.075 h 5.251 v 0.075 c -1.275,0.446 -1.433,0.71 -1.433,3.396 v 10.973 c 0.563,0.101 2.307,0.171 2.882,0.2 1.466,0 3.024,-0.81 3.024,-2.595 0,-2.341 -3.008,-3.425 -5.805,-3.425 1.667,0.004 3.01,-2.48 3.843,-3.668 1.364,-1.713 2.984,-3.719 2.984,-3.719 0.75,-0.917 1.567,-1.237 2.882,-1.237 h 2.457 c -1.415,0.89 -2.981,2.181 -4.023,3.471 l -3.577,4.5 c 2.027,0.474 3.956,2.185 3.956,4.375 C 12.441,-1.736 10.619,0 7.289,0 Z"></path> </g> <g transform="translate(54.4863,39.4819)" id="g50"> <path id="path52" style="fill:#ffffff;fill-opacity:1;fill-rule:nonzero;stroke:none" d="m 0,0 c -1.466,0.355 -3.007,0.626 -4.52,0.626 -5.087,0 -8.722,-3.407 -8.722,-8.546 0,-5.312 3.635,-8.593 9.491,-8.593 1.29,0 2.588,0.197 3.751,0.744 l 1.268,3.044 H 1.195 c -1.567,-0.898 -3.429,-1.554 -5.289,-1.554 -3.642,0 -6.145,3.084 -6.145,6.737 0,3.597 2.306,5.942 5.646,5.942 1.641,0 3.229,-0.581 4.593,-1.451 z"></path> </g> <g transform="translate(56.4839,56.3682)" id="g54"> <path id="path56" style="fill:#63656b;fill-opacity:1;fill-rule:nonzero;stroke:none" d="m 0,0 c -25.723,-1.348 -45.48,-23.292 -44.132,-49.014 0.099,-1.913 0.314,-3.794 0.634,-5.633 l 0.008,-0.046 h -0.086 l -0.009,0.046 c -0.337,1.888 -0.559,3.82 -0.663,5.785 -1.348,25.722 18.41,47.666 44.133,49.014 C 1.438,0.234 2.979,0.238 4.502,0.168 4.516,0.167 4.562,0.164 4.576,0.163 L 4.577,0.021 c -0.013,0 -0.061,0 -0.075,10e-4 C 3.017,0.086 1.516,0.08 0,0"></path> </g> <g transform="translate(15.3047,37.7461)" id="g58"> <path id="path60" style="fill:#ffffff;fill-opacity:1;fill-rule:nonzero;stroke:none" d="m 0,0 c 4.055,0 6.408,-2.109 6.408,-6.355 0,-4.166 -3.186,-6.07 -6.826,-6.07 -0.568,0 -1.105,0.048 -1.645,0.151 V -0.236 C -1.372,-0.086 -0.687,0 0,0 m -4.768,-10.806 c 0,-1.465 0.15,-2.655 -1.097,-3.495 v -0.076 h 5.967 c 5.562,0 9.313,3.429 9.313,8.317 0,4.948 -3.529,8.024 -9.195,8.024 H -5.865 V 1.888 c 1.275,-0.372 1.097,-2.181 1.097,-3.329 z"></path> </g> <path id="path62" style="fill:#63656a;fill-opacity:1;fill-rule:nonzero;stroke:#636569;stroke-width:0.1;stroke-linecap:butt;stroke-linejoin:miter;stroke-miterlimit:10;stroke-dasharray:none;stroke-opacity:1" d="m 70.631,50.404 h 0.59 v -6.198 h -0.59 z"></path> <g transform="translate(73.8125,49.0142)" id="g64"> <path id="path66" style="fill:#63656a;fill-opacity:1;fill-rule:nonzero;stroke:none" d="m 0,0 c 0.209,0.104 0.514,0.229 0.971,0.229 0.781,0 1.334,-0.401 1.334,-1.534 V -4.809 H 1.762 v 3.619 c 0,0.742 -0.362,0.961 -0.867,0.961 -0.571,0 -0.895,-0.19 -1.305,-0.495 v -4.085 h -0.542 v 4.942 h 0.266 l 0.258,-0.61 z"></path> </g> <g transform="translate(73.8125,49.0142)" id="g68"> <path id="path70" style="fill:none;stroke:#636569;stroke-width:0.1;stroke-linecap:butt;stroke-linejoin:miter;stroke-miterlimit:10;stroke-dasharray:none;stroke-opacity:1" d="m 0,0 c 0.209,0.104 0.514,0.229 0.971,0.229 0.781,0 1.334,-0.401 1.334,-1.534 V -4.809 H 1.762 v 3.619 c 0,0.742 -0.362,0.961 -0.867,0.961 -0.571,0 -0.895,-0.19 -1.305,-0.495 v -4.085 h -0.542 v 4.942 h 0.266 l 0.258,-0.61 z"></path> </g> <g transform="translate(77.252,44.3862)" id="g72"> <path id="path74" style="fill:#63656a;fill-opacity:1;fill-rule:nonzero;stroke:none" d="M 0,0 0.096,0.429 C 0.43,0.276 0.867,0.124 1.362,0.124 c 0.61,0 1.009,0.248 1.009,0.942 0,0.639 -0.18,0.8 -1.142,1.077 C 0.506,2.352 0.01,2.647 0.01,3.504 c 0,0.895 0.582,1.352 1.467,1.352 0.543,0 0.97,-0.124 1.265,-0.276 L 2.648,4.171 C 2.276,4.304 2.02,4.399 1.467,4.399 0.877,4.399 0.533,4.218 0.533,3.523 0.533,2.895 0.82,2.79 1.562,2.571 2.457,2.305 2.904,1.98 2.904,1.076 2.904,0.286 2.391,-0.314 1.371,-0.314 0.734,-0.314 0.277,-0.152 0,0"></path> </g> <g transform="translate(77.252,44.3862)" id="g76"> <path id="path78" style="fill:none;stroke:#636569;stroke-width:0.1;stroke-linecap:butt;stroke-linejoin:miter;stroke-miterlimit:10;stroke-dasharray:none;stroke-opacity:1" d="M 0,0 0.096,0.429 C 0.43,0.276 0.867,0.124 1.362,0.124 c 0.61,0 1.009,0.248 1.009,0.942 0,0.639 -0.18,0.8 -1.142,1.077 C 0.506,2.352 0.01,2.647 0.01,3.504 c 0,0.895 0.582,1.352 1.467,1.352 0.543,0 0.97,-0.124 1.265,-0.276 L 2.648,4.171 C 2.276,4.304 2.02,4.399 1.467,4.399 0.877,4.399 0.533,4.218 0.533,3.523 0.533,2.895 0.82,2.79 1.562,2.571 2.457,2.305 2.904,1.98 2.904,1.076 2.904,0.286 2.391,-0.314 1.371,-0.314 0.734,-0.314 0.277,-0.152 0,0 Z"></path> </g> <g transform="translate(83.9492,49.147)" id="g80"> <path id="path82" style="fill:#63656a;fill-opacity:1;fill-rule:nonzero;stroke:none" d="M 0,0 H 0.542 V -4.941 H 0.275 L 0.018,-4.37 -0.381,-4.827 c -0.201,-0.105 -0.524,-0.21 -0.981,-0.21 -0.762,0 -1.314,0.4 -1.314,1.533 V 0 h 0.543 v -3.618 c 0,-0.742 0.352,-0.99 0.847,-0.99 0.561,0 0.914,0.181 1.286,0.495 z"></path> </g> <g transform="translate(83.9492,49.147)" id="g84"> <path id="path86" style="fill:none;stroke:#636569;stroke-width:0.1;stroke-linecap:butt;stroke-linejoin:miter;stroke-miterlimit:10;stroke-dasharray:none;stroke-opacity:1" d="M 0,0 H 0.542 V -4.941 H 0.275 L 0.018,-4.37 -0.381,-4.827 c -0.201,-0.105 -0.524,-0.21 -0.981,-0.21 -0.762,0 -1.314,0.4 -1.314,1.533 V 0 h 0.543 v -3.618 c 0,-0.742 0.352,-0.99 0.847,-0.99 0.561,0 0.914,0.181 1.286,0.495 z"></path> </g> <g transform="translate(87.0176,49.0615)" id="g88"> <path id="path90" style="fill:#63656a;fill-opacity:1;fill-rule:nonzero;stroke:none" d="m 0,0 c 0.248,0.114 0.477,0.181 0.723,0.181 0.304,0 0.524,-0.067 0.648,-0.124 L 1.256,-0.457 c -0.209,0.085 -0.381,0.133 -0.686,0.133 -0.427,0 -0.713,-0.209 -1.027,-0.476 V -4.856 H -1 v 4.941 h 0.267 l 0.256,-0.599 z"></path> </g> <g transform="translate(87.0176,49.0615)" id="g92"> <path id="path94" style="fill:none;stroke:#636569;stroke-width:0.1;stroke-linecap:butt;stroke-linejoin:miter;stroke-miterlimit:10;stroke-dasharray:none;stroke-opacity:1" d="m 0,0 c 0.248,0.114 0.477,0.181 0.723,0.181 0.304,0 0.524,-0.067 0.648,-0.124 L 1.256,-0.457 c -0.209,0.085 -0.381,0.133 -0.686,0.133 -0.427,0 -0.713,-0.209 -1.027,-0.476 V -4.856 H -1 v 4.941 h 0.267 l 0.256,-0.599 z"></path> </g> <g transform="translate(91.6953,46.6909)" id="g96"> <path id="path98" style="fill:#63656a;fill-opacity:1;fill-rule:nonzero;stroke:none" d="m 0,0 -0.896,-0.086 c -0.847,-0.076 -1.209,-0.343 -1.209,-1.085 v -0.067 c 0,-0.666 0.294,-0.933 0.98,-0.933 0.572,0 0.896,0.257 1.125,0.533 z M 0,0.952 C 0,1.6 -0.162,2.075 -0.914,2.075 -1.4,2.075 -1.838,1.942 -2.324,1.78 L -2.41,2.218 c 0.476,0.191 0.904,0.334 1.486,0.334 1.028,0 1.457,-0.562 1.457,-1.79 v -2.543 c 0,-0.295 0.104,-0.381 0.352,-0.381 H 1.047 L 1.066,-2.495 C 0.99,-2.533 0.847,-2.581 0.676,-2.581 c -0.125,0 -0.239,0.019 -0.354,0.067 L 0.018,-1.99 -0.439,-2.485 c -0.18,-0.077 -0.466,-0.134 -0.752,-0.134 -0.829,0 -1.466,0.372 -1.466,1.429 0,0.971 0.561,1.39 1.723,1.485 L 0,0.371 Z"></path> </g> <g transform="translate(91.6953,46.6909)" id="g100"> <path id="path102" style="fill:none;stroke:#636569;stroke-width:0.1;stroke-linecap:butt;stroke-linejoin:miter;stroke-miterlimit:10;stroke-dasharray:none;stroke-opacity:1" d="m 0,0 -0.896,-0.086 c -0.847,-0.076 -1.209,-0.343 -1.209,-1.085 v -0.067 c 0,-0.666 0.294,-0.933 0.98,-0.933 0.572,0 0.896,0.257 1.125,0.533 z M 0,0.952 C 0,1.6 -0.162,2.075 -0.914,2.075 -1.4,2.075 -1.838,1.942 -2.324,1.78 L -2.41,2.218 c 0.476,0.191 0.904,0.334 1.486,0.334 1.028,0 1.457,-0.562 1.457,-1.79 v -2.543 c 0,-0.295 0.104,-0.381 0.352,-0.381 H 1.047 L 1.066,-2.495 C 0.99,-2.533 0.847,-2.581 0.676,-2.581 c -0.125,0 -0.239,0.019 -0.354,0.067 L 0.018,-1.99 -0.439,-2.485 c -0.18,-0.077 -0.466,-0.134 -0.752,-0.134 -0.829,0 -1.466,0.372 -1.466,1.429 0,0.971 0.561,1.39 1.723,1.485 L 0,0.371 Z"></path> </g> <g transform="translate(94.7637,49.0142)" id="g104"> <path id="path106" style="fill:#63656a;fill-opacity:1;fill-rule:nonzero;stroke:none" d="m 0,0 c 0.209,0.104 0.514,0.229 0.971,0.229 0.781,0 1.334,-0.401 1.334,-1.534 V -4.809 H 1.762 v 3.619 c 0,0.742 -0.362,0.961 -0.867,0.961 -0.571,0 -0.895,-0.19 -1.305,-0.495 v -4.085 h -0.542 v 4.942 h 0.266 l 0.258,-0.61 z"></path> </g> <g transform="translate(94.7637,49.0142)" id="g108"> <path id="path110" style="fill:none;stroke:#636569;stroke-width:0.1;stroke-linecap:butt;stroke-linejoin:miter;stroke-miterlimit:10;stroke-dasharray:none;stroke-opacity:1" d="m 0,0 c 0.209,0.104 0.514,0.229 0.971,0.229 0.781,0 1.334,-0.401 1.334,-1.534 V -4.809 H 1.762 v 3.619 c 0,0.742 -0.362,0.961 -0.867,0.961 -0.571,0 -0.895,-0.19 -1.305,-0.495 v -4.085 h -0.542 v 4.942 h 0.266 l 0.258,-0.61 z"></path> </g> <g transform="translate(98.2422,46.6909)" id="g112"> <path id="path114" style="fill:#63656a;fill-opacity:1;fill-rule:nonzero;stroke:none" d="m 0,0 c 0,1.761 0.629,2.552 1.818,2.552 0.487,0 0.924,-0.124 1.286,-0.277 L 3.009,1.837 C 2.533,1.99 2.219,2.085 1.857,2.085 c -0.829,0 -1.286,-0.391 -1.286,-2 v -0.123 c 0,-1.657 0.476,-2.133 1.286,-2.133 0.448,0 0.686,0.124 1.152,0.343 l 0.143,-0.41 C 2.838,-2.428 2.352,-2.619 1.818,-2.619 0.647,-2.619 0,-1.781 0,0"></path> </g> <g transform="translate(98.2422,46.6909)" id="g116"> <path id="path118" style="fill:none;stroke:#636569;stroke-width:0.1;stroke-linecap:butt;stroke-linejoin:miter;stroke-miterlimit:10;stroke-dasharray:none;stroke-opacity:1" d="m 0,0 c 0,1.761 0.629,2.552 1.818,2.552 0.487,0 0.924,-0.124 1.286,-0.277 L 3.009,1.837 C 2.533,1.99 2.219,2.085 1.857,2.085 c -0.829,0 -1.286,-0.391 -1.286,-2 v -0.123 c 0,-1.657 0.476,-2.133 1.286,-2.133 0.448,0 0.686,0.124 1.152,0.343 l 0.143,-0.41 C 2.838,-2.428 2.352,-2.619 1.818,-2.619 0.647,-2.619 0,-1.781 0,0 Z"></path> </g> <g transform="translate(105.1289,46.9668)" id="g120"> <path id="path122" style="fill:#63656a;fill-opacity:1;fill-rule:nonzero;stroke:none" d="M 0,0 V 0.124 C 0,1.371 -0.381,1.828 -1.114,1.828 -1.838,1.828 -2.361,1.504 -2.409,0 Z m -1.02,-2.447 c 0.43,0 0.801,0.124 1.258,0.343 l 0.123,-0.419 c -0.295,-0.162 -0.847,-0.372 -1.418,-0.372 -1.257,0 -1.923,0.848 -1.923,2.6 0,1.828 0.771,2.571 1.866,2.571 1.124,0 1.676,-0.886 1.676,-2.257 v -0.467 h -2.971 c 0.009,-1.494 0.466,-1.999 1.389,-1.999"></path> </g> <g transform="translate(105.1289,46.9668)" id="g124"> <path id="path126" style="fill:none;stroke:#636569;stroke-width:0.1;stroke-linecap:butt;stroke-linejoin:miter;stroke-miterlimit:10;stroke-dasharray:none;stroke-opacity:1" d="M 0,0 V 0.124 C 0,1.371 -0.381,1.828 -1.114,1.828 -1.838,1.828 -2.361,1.504 -2.409,0 Z m -1.02,-2.447 c 0.43,0 0.801,0.124 1.258,0.343 l 0.123,-0.419 c -0.295,-0.162 -0.847,-0.372 -1.418,-0.372 -1.257,0 -1.923,0.848 -1.923,2.6 0,1.828 0.771,2.571 1.866,2.571 1.124,0 1.676,-0.886 1.676,-2.257 v -0.467 h -2.971 c 0.009,-1.494 0.466,-1.999 1.389,-1.999 z"></path> </g> <g transform="translate(70.583,34.2085)" id="g128"> <path id="path130" style="fill:#63656a;fill-opacity:1;fill-rule:nonzero;stroke:none" d="M 0,0 V 3.571 H -0.609 V 4.037 H 0.028 L 0.276,5.37 H 0.542 V 4.037 H 1.647 V 3.571 H 0.542 v -3.656 c 0,-0.343 0.086,-0.457 0.41,-0.457 H 1.724 L 1.752,-0.818 C 1.466,-0.914 1.161,-1 0.8,-1 0.229,-1 0,-0.704 0,0"></path> </g> <g transform="translate(70.583,34.2085)" id="g132"> <path id="path134" style="fill:none;stroke:#636569;stroke-width:0.1;stroke-linecap:butt;stroke-linejoin:miter;stroke-miterlimit:10;stroke-dasharray:none;stroke-opacity:1" d="M 0,0 V 3.571 H -0.609 V 4.037 H 0.028 L 0.276,5.37 H 0.542 V 4.037 H 1.647 V 3.571 H 0.542 v -3.656 c 0,-0.343 0.086,-0.457 0.41,-0.457 H 1.724 L 1.752,-0.818 C 1.466,-0.914 1.161,-1 0.8,-1 0.229,-1 0,-0.704 0,0 Z"></path> </g> <g transform="translate(75.9082,36.0654)" id="g136"> <path id="path138" style="fill:#63656a;fill-opacity:1;fill-rule:nonzero;stroke:none" d="M 0,0 V 0.124 C 0,1.371 -0.381,1.828 -1.115,1.828 -1.838,1.828 -2.361,1.504 -2.41,0 Z m -1.02,-2.447 c 0.428,0 0.8,0.124 1.257,0.343 l 0.124,-0.419 c -0.295,-0.162 -0.847,-0.372 -1.419,-0.372 -1.256,0 -1.922,0.848 -1.922,2.6 0,1.828 0.771,2.571 1.865,2.571 1.124,0 1.676,-0.886 1.676,-2.257 V -0.448 H -2.41 c 0.01,-1.494 0.467,-1.999 1.39,-1.999"></path> </g> <g transform="translate(75.9082,36.0654)" id="g140"> <path id="path142" style="fill:none;stroke:#636569;stroke-width:0.1;stroke-linecap:butt;stroke-linejoin:miter;stroke-miterlimit:10;stroke-dasharray:none;stroke-opacity:1" d="M 0,0 V 0.124 C 0,1.371 -0.381,1.828 -1.115,1.828 -1.838,1.828 -2.361,1.504 -2.41,0 Z m -1.02,-2.447 c 0.428,0 0.8,0.124 1.257,0.343 l 0.124,-0.419 c -0.295,-0.162 -0.847,-0.372 -1.419,-0.372 -1.256,0 -1.922,0.848 -1.922,2.6 0,1.828 0.771,2.571 1.865,2.571 1.124,0 1.676,-0.886 1.676,-2.257 V -0.448 H -2.41 c 0.01,-1.494 0.467,-1.999 1.39,-1.999 z"></path> </g> <g transform="translate(77.252,35.7896)" id="g144"> <path id="path146" style="fill:#63656a;fill-opacity:1;fill-rule:nonzero;stroke:none" d="m 0,0 c 0,1.761 0.629,2.552 1.818,2.552 0.487,0 0.924,-0.124 1.286,-0.277 L 3.01,1.837 C 2.533,1.99 2.219,2.085 1.857,2.085 c -0.828,0 -1.285,-0.391 -1.285,-2 v -0.123 c 0,-1.657 0.476,-2.133 1.285,-2.133 0.448,0 0.686,0.124 1.153,0.343 l 0.142,-0.41 C 2.838,-2.428 2.352,-2.619 1.818,-2.619 0.648,-2.619 0,-1.781 0,0"></path> </g> <g transform="translate(77.252,35.7896)" id="g148"> <path id="path150" style="fill:none;stroke:#636569;stroke-width:0.1;stroke-linecap:butt;stroke-linejoin:miter;stroke-miterlimit:10;stroke-dasharray:none;stroke-opacity:1" d="m 0,0 c 0,1.761 0.629,2.552 1.818,2.552 0.487,0 0.924,-0.124 1.286,-0.277 L 3.01,1.837 C 2.533,1.99 2.219,2.085 1.857,2.085 c -0.828,0 -1.285,-0.391 -1.285,-2 v -0.123 c 0,-1.657 0.476,-2.133 1.285,-2.133 0.448,0 0.686,0.124 1.153,0.343 l 0.142,-0.41 C 2.838,-2.428 2.352,-2.619 1.818,-2.619 0.648,-2.619 0,-1.781 0,0 Z"></path> </g> <g transform="translate(81.873,33.3042)" id="g152"> <path id="path154" style="fill:#63656a;fill-opacity:1;fill-rule:nonzero;stroke:none" d="M 0,0 H -0.543 V 6.836 H 0 V 4.352 l 0.409,0.457 c 0.21,0.104 0.515,0.228 0.972,0.228 0.78,0 1.332,-0.4 1.332,-1.533 V 0 H 2.17 V 3.618 C 2.17,4.361 1.809,4.58 1.305,4.58 0.732,4.58 0.409,4.39 0,4.085 Z"></path> </g> <g transform="translate(81.873,33.3042)" id="g156"> <path id="path158" style="fill:none;stroke:#636569;stroke-width:0.1;stroke-linecap:butt;stroke-linejoin:miter;stroke-miterlimit:10;stroke-dasharray:none;stroke-opacity:1" d="M 0,0 H -0.543 V 6.836 H 0 V 4.352 l 0.409,0.457 c 0.21,0.104 0.515,0.228 0.972,0.228 0.78,0 1.332,-0.4 1.332,-1.533 V 0 H 2.17 V 3.618 C 2.17,4.361 1.809,4.58 1.305,4.58 0.732,4.58 0.409,4.39 0,4.085 Z"></path> </g> <g transform="translate(86.875,38.1128)" id="g160"> <path id="path162" style="fill:#63656a;fill-opacity:1;fill-rule:nonzero;stroke:none" d="m 0,0 c 0.209,0.104 0.514,0.229 0.971,0.229 0.781,0 1.334,-0.401 1.334,-1.534 V -4.809 H 1.762 v 3.619 c 0,0.742 -0.362,0.961 -0.867,0.961 -0.571,0 -0.895,-0.19 -1.305,-0.495 v -4.085 h -0.542 v 4.942 h 0.266 l 0.258,-0.61 z"></path> </g> <g transform="translate(86.875,38.1128)" id="g164"> <path id="path166" style="fill:none;stroke:#636569;stroke-width:0.1;stroke-linecap:butt;stroke-linejoin:miter;stroke-miterlimit:10;stroke-dasharray:none;stroke-opacity:1" d="m 0,0 c 0.209,0.104 0.514,0.229 0.971,0.229 0.781,0 1.334,-0.401 1.334,-1.534 V -4.809 H 1.762 v 3.619 c 0,0.742 -0.362,0.961 -0.867,0.961 -0.571,0 -0.895,-0.19 -1.305,-0.495 v -4.085 h -0.542 v 4.942 h 0.266 l 0.258,-0.61 z"></path> </g> <g transform="translate(93.4189,35.6846)" id="g168"> <path id="path170" style="fill:#63656a;fill-opacity:1;fill-rule:nonzero;stroke:none" d="M 0,0 V 0.124 C 0,1.714 -0.505,2.2 -1.304,2.2 -2.114,2.2 -2.628,1.705 -2.628,0.171 V 0.047 c 0,-1.551 0.553,-2.123 1.324,-2.123 C -0.542,-2.076 0,-1.504 0,0 m -3.199,0.076 c 0,1.705 0.79,2.581 1.895,2.581 1.104,0 1.875,-0.876 1.875,-2.552 0,-1.714 -0.742,-2.619 -1.875,-2.619 -1.134,0 -1.895,0.905 -1.895,2.59"></path> </g> <g transform="translate(93.4189,35.6846)" id="g172"> <path id="path174" style="fill:none;stroke:#636569;stroke-width:0.1;stroke-linecap:butt;stroke-linejoin:miter;stroke-miterlimit:10;stroke-dasharray:none;stroke-opacity:1" d="M 0,0 V 0.124 C 0,1.714 -0.505,2.2 -1.304,2.2 -2.114,2.2 -2.628,1.705 -2.628,0.171 V 0.047 c 0,-1.551 0.553,-2.123 1.324,-2.123 C -0.542,-2.076 0,-1.504 0,0 Z m -3.199,0.076 c 0,1.705 0.79,2.581 1.895,2.581 1.104,0 1.875,-0.876 1.875,-2.552 0,-1.714 -0.742,-2.619 -1.875,-2.619 -1.134,0 -1.895,0.905 -1.895,2.59 z"></path> </g> <path id="path176" style="fill:#63656a;fill-opacity:1;fill-rule:nonzero;stroke:#636569;stroke-width:0.1;stroke-linecap:butt;stroke-linejoin:miter;stroke-miterlimit:10;stroke-dasharray:none;stroke-opacity:1" d="m 95.127,40.141 h 0.552 v -6.836 h -0.552 z"></path> <g transform="translate(100.0117,35.6846)" id="g178"> <path id="path180" style="fill:#63656a;fill-opacity:1;fill-rule:nonzero;stroke:none" d="M 0,0 V 0.124 C 0,1.714 -0.504,2.2 -1.305,2.2 -2.113,2.2 -2.627,1.705 -2.627,0.171 V 0.047 c 0,-1.551 0.552,-2.123 1.322,-2.123 C -0.543,-2.076 0,-1.504 0,0 m -3.199,0.076 c 0,1.705 0.791,2.581 1.894,2.581 1.106,0 1.877,-0.876 1.877,-2.552 0,-1.714 -0.743,-2.619 -1.877,-2.619 -1.133,0 -1.894,0.905 -1.894,2.59"></path> </g> <g transform="translate(100.0117,35.6846)" id="g182"> <path id="path184" style="fill:none;stroke:#636569;stroke-width:0.1;stroke-linecap:butt;stroke-linejoin:miter;stroke-miterlimit:10;stroke-dasharray:none;stroke-opacity:1" d="M 0,0 V 0.124 C 0,1.714 -0.504,2.2 -1.305,2.2 -2.113,2.2 -2.627,1.705 -2.627,0.171 V 0.047 c 0,-1.551 0.552,-2.123 1.322,-2.123 C -0.543,-2.076 0,-1.504 0,0 Z m -3.199,0.076 c 0,1.705 0.791,2.581 1.894,2.581 1.106,0 1.877,-0.876 1.877,-2.552 0,-1.714 -0.743,-2.619 -1.877,-2.619 -1.133,0 -1.894,0.905 -1.894,2.59 z"></path> </g> <g transform="translate(104.29,36.751)" id="g186"> <path id="path188" style="fill:#63656a;fill-opacity:1;fill-rule:nonzero;stroke:none" d="m 0,0 v 0.057 c 0,0.648 -0.333,1.086 -1.134,1.086 -0.808,0 -1.151,-0.438 -1.151,-1.076 V 0.009 c 0,-0.771 0.343,-1.113 1.151,-1.113 C -0.333,-1.104 0,-0.762 0,0 m -2.514,-3.847 c 0,-0.571 0.457,-0.828 1.314,-0.828 1.066,0 1.581,0.476 1.581,1.019 v 0.038 c 0,0.381 -0.181,0.695 -0.829,0.695 H -1.913 C -2.285,-3.161 -2.514,-3.428 -2.514,-3.847 M 1.058,1.619 V 0.952 h -1.125 l 0.552,-0.4 C 0.533,0.39 0.562,0.267 0.562,0.057 c 0,-1.19 -0.829,-1.59 -1.696,-1.59 -0.295,0 -0.59,0.048 -0.855,0.171 -0.153,-0.114 -0.296,-0.285 -0.296,-0.533 0,-0.371 0.228,-0.552 0.694,-0.552 h 1.076 c 0.924,0 1.429,-0.438 1.429,-1.162 0,-0.961 -0.856,-1.523 -2.114,-1.523 -1.19,0 -1.819,0.514 -1.819,1.247 0,0.4 0.182,0.629 0.286,0.743 l 0.582,0.295 c -0.278,0.076 -0.61,0.295 -0.61,0.847 0,0.324 0.133,0.505 0.199,0.591 l 0.467,0.219 -0.543,0.333 c -0.123,0.238 -0.209,0.552 -0.209,0.886 0,1.161 0.951,1.561 1.713,1.561 0.381,0 0.811,-0.095 1.153,-0.362 z"></path> </g> <g transform="translate(104.29,36.751)" id="g190"> <path id="path192" style="fill:none;stroke:#636569;stroke-width:0.1;stroke-linecap:butt;stroke-linejoin:miter;stroke-miterlimit:10;stroke-dasharray:none;stroke-opacity:1" d="m 0,0 v 0.057 c 0,0.648 -0.333,1.086 -1.134,1.086 -0.808,0 -1.151,-0.438 -1.151,-1.076 V 0.009 c 0,-0.771 0.343,-1.113 1.151,-1.113 C -0.333,-1.104 0,-0.762 0,0 Z m -2.514,-3.847 c 0,-0.571 0.457,-0.828 1.314,-0.828 1.066,0 1.581,0.476 1.581,1.019 v 0.038 c 0,0.381 -0.181,0.695 -0.829,0.695 H -1.913 C -2.285,-3.161 -2.514,-3.428 -2.514,-3.847 Z M 1.058,1.619 V 0.952 h -1.125 l 0.552,-0.4 C 0.533,0.39 0.562,0.267 0.562,0.057 c 0,-1.19 -0.829,-1.59 -1.696,-1.59 -0.295,0 -0.59,0.048 -0.855,0.171 -0.153,-0.114 -0.296,-0.285 -0.296,-0.533 0,-0.371 0.228,-0.552 0.694,-0.552 h 1.076 c 0.924,0 1.429,-0.438 1.429,-1.162 0,-0.961 -0.856,-1.523 -2.114,-1.523 -1.19,0 -1.819,0.514 -1.819,1.247 0,0.4 0.182,0.629 0.286,0.743 l 0.582,0.295 c -0.278,0.076 -0.61,0.295 -0.61,0.847 0,0.324 0.133,0.505 0.199,0.591 l 0.467,0.219 -0.543,0.333 c -0.123,0.238 -0.209,0.552 -0.209,0.886 0,1.161 0.951,1.561 1.713,1.561 0.381,0 0.811,-0.095 1.153,-0.362 z"></path> </g> <g transform="translate(107.1504,33.4185)" id="g194"> <path id="path196" style="fill:#63656a;fill-opacity:1;fill-rule:nonzero;stroke:none" d="M 0,0 -1.562,4.827 H -1 L 0.047,1.476 0.285,0.2 0.542,1.476 1.59,4.827 H 2.133 L 0.057,-1.657 h -0.543 z"></path> </g> <g transform="translate(107.1504,33.4185)" id="g198"> <path id="path200" style="fill:none;stroke:#636569;stroke-width:0.1;stroke-linecap:butt;stroke-linejoin:miter;stroke-miterlimit:10;stroke-dasharray:none;stroke-opacity:1" d="M 0,0 -1.562,4.827 H -1 L 0.047,1.476 0.285,0.2 0.542,1.476 1.59,4.827 H 2.133 L 0.057,-1.657 h -0.543 z"></path> </g> <g transform="translate(109.9131,33.771)" id="g202"> <path id="path204" style="fill:#63656a;fill-opacity:1;fill-rule:nonzero;stroke:none" d="M 0,0 C 0,0.333 0.257,0.562 0.542,0.562 0.847,0.562 1.095,0.333 1.095,0 1.095,-0.324 0.847,-0.553 0.542,-0.553 0.257,-0.553 0,-0.324 0,0"></path> </g> <g transform="translate(109.9131,33.771)" id="g206"> <path id="path208" style="fill:none;stroke:#636569;stroke-width:0.1;stroke-linecap:butt;stroke-linejoin:miter;stroke-miterlimit:10;stroke-dasharray:none;stroke-opacity:1" d="M 0,0 C 0,0.333 0.257,0.562 0.542,0.562 0.847,0.562 1.095,0.333 1.095,0 1.095,-0.324 0.847,-0.553 0.542,-0.553 0.257,-0.553 0,-0.324 0,0 Z"></path> </g> <g transform="translate(69.9922,28.1172)" id="g210"> <path id="path212" style="fill:#63656a;fill-opacity:1;fill-rule:nonzero;stroke:none" d="M 0,0 V 0.486 H 3.885 V 0 H 2.238 v -5.713 h -0.59 l 0,5.713 z"></path> </g> <g transform="translate(69.9922,28.1172)" id="g214"> <path id="path216" style="fill:none;stroke:#636569;stroke-width:0.1;stroke-linecap:butt;stroke-linejoin:miter;stroke-miterlimit:10;stroke-dasharray:none;stroke-opacity:1" d="M 0,0 V 0.486 H 3.885 V 0 H 2.238 v -5.713 h -0.59 l 0,5.713 z"></path> </g> <g transform="translate(75.3848,22.4043)" id="g218"> <path id="path220" style="fill:#63656a;fill-opacity:1;fill-rule:nonzero;stroke:none" d="M 0,0 H -0.543 V 6.837 H 0 V 4.352 l 0.409,0.457 c 0.21,0.105 0.515,0.228 0.972,0.228 0.78,0 1.332,-0.4 1.332,-1.533 V 0 H 2.17 V 3.619 C 2.17,4.361 1.809,4.58 1.305,4.58 0.732,4.58 0.409,4.391 0,4.086 Z"></path> </g> <g transform="translate(75.3848,22.4043)" id="g222"> <path id="path224" style="fill:none;stroke:#636569;stroke-width:0.1;stroke-linecap:butt;stroke-linejoin:miter;stroke-miterlimit:10;stroke-dasharray:none;stroke-opacity:1" d="M 0,0 H -0.543 V 6.837 H 0 V 4.352 l 0.409,0.457 c 0.21,0.105 0.515,0.228 0.972,0.228 0.78,0 1.332,-0.4 1.332,-1.533 V 0 H 2.17 V 3.619 C 2.17,4.361 1.809,4.58 1.305,4.58 0.732,4.58 0.409,4.391 0,4.086 Z"></path> </g> <g transform="translate(82.4336,24.7852)" id="g226"> <path id="path228" style="fill:#63656a;fill-opacity:1;fill-rule:nonzero;stroke:none" d="m 0,0 v 0.123 c 0,1.591 -0.504,2.076 -1.305,2.076 -0.808,0 -1.323,-0.494 -1.323,-2.027 V 0.047 c 0,-1.551 0.552,-2.123 1.323,-2.123 C -0.543,-2.076 0,-1.504 0,0 m -3.199,0.076 c 0,1.705 0.791,2.58 1.894,2.58 1.106,0 1.876,-0.875 1.876,-2.551 0,-1.714 -0.743,-2.619 -1.876,-2.619 -1.133,0 -1.894,0.905 -1.894,2.59"></path> </g> <g transform="translate(82.4336,24.7852)" id="g230"> <path id="path232" style="fill:none;stroke:#636569;stroke-width:0.1;stroke-linecap:butt;stroke-linejoin:miter;stroke-miterlimit:10;stroke-dasharray:none;stroke-opacity:1" d="m 0,0 v 0.123 c 0,1.591 -0.504,2.076 -1.305,2.076 -0.808,0 -1.323,-0.494 -1.323,-2.027 V 0.047 c 0,-1.551 0.552,-2.123 1.323,-2.123 C -0.543,-2.076 0,-1.504 0,0 Z m -3.199,0.076 c 0,1.705 0.791,2.58 1.894,2.58 1.106,0 1.876,-0.875 1.876,-2.551 0,-1.714 -0.743,-2.619 -1.876,-2.619 -1.133,0 -1.894,0.905 -1.894,2.59 z"></path> </g> <g transform="translate(86.8164,27.3457)" id="g234"> <path id="path236" style="fill:#63656a;fill-opacity:1;fill-rule:nonzero;stroke:none" d="M 0,0 H 0.543 V -4.941 H 0.276 L 0.02,-4.369 -0.381,-4.826 c -0.199,-0.106 -0.523,-0.21 -0.98,-0.21 -0.762,0 -1.315,0.399 -1.315,1.532 V 0 h 0.543 v -3.617 c 0,-0.742 0.353,-0.99 0.848,-0.99 0.562,0 0.914,0.18 1.285,0.494 z"></path> </g> <g transform="translate(86.8164,27.3457)" id="g238"> <path id="path240" style="fill:none;stroke:#636569;stroke-width:0.1;stroke-linecap:butt;stroke-linejoin:miter;stroke-miterlimit:10;stroke-dasharray:none;stroke-opacity:1" d="M 0,0 H 0.543 V -4.941 H 0.276 L 0.02,-4.369 -0.381,-4.826 c -0.199,-0.106 -0.523,-0.21 -0.98,-0.21 -0.762,0 -1.315,0.399 -1.315,1.532 V 0 h 0.543 v -3.617 c 0,-0.742 0.353,-0.99 0.848,-0.99 0.562,0 0.914,0.18 1.285,0.494 z"></path> </g> <g transform="translate(91.4658,25.8516)" id="g242"> <path id="path244" style="fill:#63656a;fill-opacity:1;fill-rule:nonzero;stroke:none" d="m 0,0 v 0.057 c 0,0.648 -0.333,1.086 -1.134,1.086 -0.808,0 -1.151,-0.438 -1.151,-1.077 V 0.01 c 0,-0.772 0.343,-1.114 1.151,-1.114 C -0.333,-1.104 0,-0.762 0,0 m -2.514,-3.847 c 0,-0.571 0.457,-0.829 1.314,-0.829 1.066,0 1.581,0.477 1.581,1.02 v 0.038 c 0,0.381 -0.181,0.694 -0.829,0.694 H -1.913 C -2.285,-3.161 -2.514,-3.428 -2.514,-3.847 M 1.058,1.619 V 0.952 H -0.067 L 0.485,0.553 C 0.533,0.391 0.562,0.267 0.562,0.057 c 0,-1.19 -0.829,-1.59 -1.696,-1.59 -0.295,0 -0.59,0.048 -0.855,0.172 -0.153,-0.116 -0.296,-0.285 -0.296,-0.534 0,-0.371 0.228,-0.552 0.694,-0.552 h 1.076 c 0.924,0 1.429,-0.438 1.429,-1.162 0,-0.961 -0.856,-1.524 -2.114,-1.524 -1.19,0 -1.819,0.516 -1.819,1.248 0,0.401 0.182,0.629 0.286,0.742 l 0.582,0.295 c -0.278,0.077 -0.61,0.296 -0.61,0.848 0,0.324 0.133,0.506 0.199,0.591 l 0.467,0.22 -0.543,0.332 c -0.123,0.238 -0.209,0.552 -0.209,0.886 0,1.16 0.951,1.561 1.713,1.561 0.381,0 0.811,-0.096 1.153,-0.361 z"></path> </g> <g transform="translate(91.4658,25.8516)" id="g246"> <path id="path248" style="fill:none;stroke:#636569;stroke-width:0.1;stroke-linecap:butt;stroke-linejoin:miter;stroke-miterlimit:10;stroke-dasharray:none;stroke-opacity:1" d="m 0,0 v 0.057 c 0,0.648 -0.333,1.086 -1.134,1.086 -0.808,0 -1.151,-0.438 -1.151,-1.077 V 0.01 c 0,-0.772 0.343,-1.114 1.151,-1.114 C -0.333,-1.104 0,-0.762 0,0 Z m -2.514,-3.847 c 0,-0.571 0.457,-0.829 1.314,-0.829 1.066,0 1.581,0.477 1.581,1.02 v 0.038 c 0,0.381 -0.181,0.694 -0.829,0.694 H -1.913 C -2.285,-3.161 -2.514,-3.428 -2.514,-3.847 Z M 1.058,1.619 V 0.952 H -0.067 L 0.485,0.553 C 0.533,0.391 0.562,0.267 0.562,0.057 c 0,-1.19 -0.829,-1.59 -1.696,-1.59 -0.295,0 -0.59,0.048 -0.855,0.172 -0.153,-0.116 -0.296,-0.285 -0.296,-0.534 0,-0.371 0.228,-0.552 0.694,-0.552 h 1.076 c 0.924,0 1.429,-0.438 1.429,-1.162 0,-0.961 -0.856,-1.524 -2.114,-1.524 -1.19,0 -1.819,0.516 -1.819,1.248 0,0.401 0.182,0.629 0.286,0.742 l 0.582,0.295 c -0.278,0.077 -0.61,0.296 -0.61,0.848 0,0.324 0.133,0.506 0.199,0.591 l 0.467,0.22 -0.543,0.332 c -0.123,0.238 -0.209,0.552 -0.209,0.886 0,1.16 0.951,1.561 1.713,1.561 0.381,0 0.811,-0.096 1.153,-0.361 z"></path> </g> <g transform="translate(93.9453,22.4043)" id="g250"> <path id="path252" style="fill:#63656a;fill-opacity:1;fill-rule:nonzero;stroke:none" d="M 0,0 H -0.543 V 6.837 H 0 V 4.352 l 0.408,0.457 c 0.21,0.105 0.515,0.228 0.972,0.228 0.78,0 1.333,-0.4 1.333,-1.533 V 0 H 2.17 V 3.619 C 2.17,4.361 1.809,4.58 1.304,4.58 0.732,4.58 0.408,4.391 0,4.086 Z"></path> </g> <g transform="translate(93.9453,22.4043)" id="g254"> <path id="path256" style="fill:none;stroke:#636569;stroke-width:0.1;stroke-linecap:butt;stroke-linejoin:miter;stroke-miterlimit:10;stroke-dasharray:none;stroke-opacity:1" d="M 0,0 H -0.543 V 6.837 H 0 V 4.352 l 0.408,0.457 c 0.21,0.105 0.515,0.228 0.972,0.228 0.78,0 1.333,-0.4 1.333,-1.533 V 0 H 2.17 V 3.619 C 2.17,4.361 1.809,4.58 1.304,4.58 0.732,4.58 0.408,4.391 0,4.086 Z"></path> </g> <g transform="translate(98.1748,23.3086)" id="g258"> <path id="path260" style="fill:#63656a;fill-opacity:1;fill-rule:nonzero;stroke:none" d="M 0,0 V 3.571 H -0.609 V 4.037 H 0.028 L 0.276,5.371 H 0.542 V 4.037 H 1.647 V 3.571 H 0.542 v -3.656 c 0,-0.343 0.086,-0.457 0.41,-0.457 H 1.724 L 1.752,-0.818 C 1.466,-0.914 1.161,-0.999 0.8,-0.999 0.229,-0.999 0,-0.703 0,0"></path> </g> <g transform="translate(98.1748,23.3086)" id="g262"> <path id="path264" style="fill:none;stroke:#636569;stroke-width:0.1;stroke-linecap:butt;stroke-linejoin:miter;stroke-miterlimit:10;stroke-dasharray:none;stroke-opacity:1" d="M 0,0 V 3.571 H -0.609 V 4.037 H 0.028 L 0.276,5.371 H 0.542 V 4.037 H 1.647 V 3.571 H 0.542 v -3.656 c 0,-0.343 0.086,-0.457 0.41,-0.457 H 1.724 L 1.752,-0.818 C 1.466,-0.914 1.161,-0.999 0.8,-0.999 0.229,-0.999 0,-0.703 0,0 Z"></path> </g> <g transform="translate(100.4238,26.8799)" id="g266"> <path id="path268" style="fill:#63656a;fill-opacity:1;fill-rule:nonzero;stroke:none" d="m 0,0 v 0.466 h 0.629 v 0.838 c 0,0.791 0.391,1.125 0.933,1.125 0.372,0 0.637,-0.096 0.866,-0.211 L 2.399,1.933 H 1.6 C 1.275,1.933 1.162,1.78 1.162,1.466 v -1 H 2.295 V 0 H 1.162 V -4.476 H 0.629 l 0,4.476 z"></path> </g> <g transform="translate(100.4238,26.8799)" id="g270"> <path id="path272" style="fill:none;stroke:#636569;stroke-width:0.1;stroke-linecap:butt;stroke-linejoin:miter;stroke-miterlimit:10;stroke-dasharray:none;stroke-opacity:1" d="m 0,0 v 0.466 h 0.629 v 0.838 c 0,0.791 0.391,1.125 0.933,1.125 0.372,0 0.637,-0.096 0.866,-0.211 L 2.399,1.933 H 1.6 C 1.275,1.933 1.162,1.78 1.162,1.466 v -1 H 2.295 V 0 H 1.162 V -4.476 H 0.629 l 0,4.476 z"></path> </g> <g transform="translate(106.2246,27.3457)" id="g274"> <path id="path276" style="fill:#63656a;fill-opacity:1;fill-rule:nonzero;stroke:none" d="M 0,0 H 0.542 V -4.941 H 0.275 l -0.257,0.572 -0.399,-0.457 c -0.201,-0.106 -0.524,-0.21 -0.981,-0.21 -0.762,0 -1.314,0.399 -1.314,1.532 V 0 h 0.543 v -3.617 c 0,-0.742 0.352,-0.99 0.847,-0.99 0.561,0 0.914,0.18 1.286,0.494 z"></path> </g> <g transform="translate(106.2246,27.3457)" id="g278"> <path id="path280" style="fill:none;stroke:#636569;stroke-width:0.1;stroke-linecap:butt;stroke-linejoin:miter;stroke-miterlimit:10;stroke-dasharray:none;stroke-opacity:1" d="M 0,0 H 0.542 V -4.941 H 0.275 l -0.257,0.572 -0.399,-0.457 c -0.201,-0.106 -0.524,-0.21 -0.981,-0.21 -0.762,0 -1.314,0.399 -1.314,1.532 V 0 h 0.543 v -3.617 c 0,-0.742 0.352,-0.99 0.847,-0.99 0.561,0 0.914,0.18 1.286,0.494 z"></path> </g> <path id="path282" style="fill:#63656a;fill-opacity:1;fill-rule:nonzero;stroke:#636569;stroke-width:0.1;stroke-linecap:butt;stroke-linejoin:miter;stroke-miterlimit:10;stroke-dasharray:none;stroke-opacity:1" d="m 108.303,29.241 h 0.553 v -6.837 h -0.553 z"></path> <path id="path284" style="fill:#63656a;fill-opacity:1;fill-rule:nonzero;stroke:#636569;stroke-width:0.1;stroke-linecap:butt;stroke-linejoin:miter;stroke-miterlimit:10;stroke-dasharray:none;stroke-opacity:1" d="m 110.446,29.241 h 0.552 v -6.837 h -0.552 z"></path> <g transform="translate(113.5527,22.5195)" id="g286"> <path id="path288" style="fill:#63656a;fill-opacity:1;fill-rule:nonzero;stroke:none" d="M 0,0 -1.562,4.826 H -1 L 0.047,1.475 0.285,0.199 0.542,1.475 1.59,4.826 H 2.133 L 0.057,-1.657 h -0.543 z"></path> </g> <g transform="translate(113.5527,22.5195)" id="g290"> <path id="path292" style="fill:none;stroke:#636569;stroke-width:0.1;stroke-linecap:butt;stroke-linejoin:miter;stroke-miterlimit:10;stroke-dasharray:none;stroke-opacity:1" d="M 0,0 -1.562,4.826 H -1 L 0.047,1.475 0.285,0.199 0.542,1.475 1.59,4.826 H 2.133 L 0.057,-1.657 h -0.543 z"></path> </g> <g transform="translate(73.1816,14.2666)" id="g294"> <path id="path296" style="fill:#63656a;fill-opacity:1;fill-rule:nonzero;stroke:none" d="M 0,0 V 0.124 C 0,1.371 -0.381,1.828 -1.113,1.828 -1.837,1.828 -2.361,1.505 -2.408,0 Z m -1.018,-2.446 c 0.428,0 0.799,0.123 1.256,0.342 l 0.125,-0.418 c -0.296,-0.163 -0.847,-0.373 -1.42,-0.373 -1.256,0 -1.922,0.847 -1.922,2.599 0,1.828 0.77,2.572 1.866,2.572 1.123,0 1.675,-0.886 1.675,-2.257 v -0.467 h -2.97 c 0.01,-1.494 0.467,-1.998 1.39,-1.998"></path> </g> <g transform="translate(73.1816,14.2666)" id="g298"> <path id="path300" style="fill:none;stroke:#636569;stroke-width:0.1;stroke-linecap:butt;stroke-linejoin:miter;stroke-miterlimit:10;stroke-dasharray:none;stroke-opacity:1" d="M 0,0 V 0.124 C 0,1.371 -0.381,1.828 -1.113,1.828 -1.837,1.828 -2.361,1.505 -2.408,0 Z m -1.018,-2.446 c 0.428,0 0.799,0.123 1.256,0.342 l 0.125,-0.418 c -0.296,-0.163 -0.847,-0.373 -1.42,-0.373 -1.256,0 -1.922,0.847 -1.922,2.599 0,1.828 0.77,2.572 1.866,2.572 1.123,0 1.675,-0.886 1.675,-2.257 v -0.467 h -2.97 c 0.01,-1.494 0.467,-1.998 1.39,-1.998 z"></path> </g> <g transform="translate(75.9277,16.3145)" id="g302"> <path id="path304" style="fill:#63656a;fill-opacity:1;fill-rule:nonzero;stroke:none" d="m 0,0 c 0.209,0.104 0.514,0.229 0.971,0.229 0.781,0 1.334,-0.401 1.334,-1.534 V -4.809 H 1.762 v 3.618 c 0,0.743 -0.362,0.962 -0.867,0.962 C 0.324,-0.229 0,-0.42 -0.41,-0.725 v -4.084 h -0.542 v 4.942 h 0.266 l 0.258,-0.61 z"></path> </g> <g transform="translate(75.9277,16.3145)" id="g306"> <path id="path308" style="fill:none;stroke:#636569;stroke-width:0.1;stroke-linecap:butt;stroke-linejoin:miter;stroke-miterlimit:10;stroke-dasharray:none;stroke-opacity:1" d="m 0,0 c 0.209,0.104 0.514,0.229 0.971,0.229 0.781,0 1.334,-0.401 1.334,-1.534 V -4.809 H 1.762 v 3.618 c 0,0.743 -0.362,0.962 -0.867,0.962 C 0.324,-0.229 0,-0.42 -0.41,-0.725 v -4.084 h -0.542 v 4.942 h 0.266 l 0.258,-0.61 z"></path> </g> <g transform="translate(82.3477,14.9521)" id="g310"> <path id="path312" style="fill:#63656a;fill-opacity:1;fill-rule:nonzero;stroke:none" d="m 0,0 v 0.058 c 0,0.646 -0.332,1.085 -1.133,1.085 -0.808,0 -1.152,-0.439 -1.152,-1.076 V 0.009 c 0,-0.771 0.344,-1.113 1.152,-1.113 C -0.332,-1.104 0,-0.762 0,0 m -2.514,-3.847 c 0,-0.571 0.457,-0.828 1.315,-0.828 1.066,0 1.58,0.477 1.58,1.019 v 0.038 c 0,0.381 -0.18,0.695 -0.828,0.695 h -1.467 c -0.371,-0.238 -0.6,-0.505 -0.6,-0.924 M 1.057,1.618 V 0.952 h -1.123 l 0.552,-0.4 C 0.533,0.39 0.562,0.267 0.562,0.058 c 0,-1.192 -0.828,-1.59 -1.695,-1.59 -0.295,0 -0.59,0.047 -0.857,0.17 -0.153,-0.114 -0.295,-0.285 -0.295,-0.534 0,-0.371 0.228,-0.55 0.695,-0.55 h 1.076 c 0.924,0 1.428,-0.44 1.428,-1.162 0,-0.962 -0.856,-1.524 -2.113,-1.524 -1.19,0 -1.819,0.514 -1.819,1.247 0,0.4 0.181,0.628 0.286,0.743 l 0.581,0.295 c -0.277,0.076 -0.61,0.295 -0.61,0.848 0,0.323 0.134,0.504 0.2,0.59 l 0.467,0.219 -0.543,0.334 c -0.124,0.238 -0.209,0.551 -0.209,0.884 0,1.162 0.951,1.563 1.713,1.563 0.381,0 0.81,-0.096 1.153,-0.363 z"></path> </g> <g transform="translate(82.3477,14.9521)" id="g314"> <path id="path316" style="fill:none;stroke:#636569;stroke-width:0.1;stroke-linecap:butt;stroke-linejoin:miter;stroke-miterlimit:10;stroke-dasharray:none;stroke-opacity:1" d="m 0,0 v 0.058 c 0,0.646 -0.332,1.085 -1.133,1.085 -0.808,0 -1.152,-0.439 -1.152,-1.076 V 0.009 c 0,-0.771 0.344,-1.113 1.152,-1.113 C -0.332,-1.104 0,-0.762 0,0 Z m -2.514,-3.847 c 0,-0.571 0.457,-0.828 1.315,-0.828 1.066,0 1.58,0.477 1.58,1.019 v 0.038 c 0,0.381 -0.18,0.695 -0.828,0.695 h -1.467 c -0.371,-0.238 -0.6,-0.505 -0.6,-0.924 z M 1.057,1.618 V 0.952 h -1.123 l 0.552,-0.4 C 0.533,0.39 0.562,0.267 0.562,0.058 c 0,-1.192 -0.828,-1.59 -1.695,-1.59 -0.295,0 -0.59,0.047 -0.857,0.17 -0.153,-0.114 -0.295,-0.285 -0.295,-0.534 0,-0.371 0.228,-0.55 0.695,-0.55 h 1.076 c 0.924,0 1.428,-0.44 1.428,-1.162 0,-0.962 -0.856,-1.524 -2.113,-1.524 -1.19,0 -1.819,0.514 -1.819,1.247 0,0.4 0.181,0.628 0.286,0.743 l 0.581,0.295 c -0.277,0.076 -0.61,0.295 -0.61,0.848 0,0.323 0.134,0.504 0.2,0.59 l 0.467,0.219 -0.543,0.334 c -0.124,0.238 -0.209,0.551 -0.209,0.884 0,1.162 0.951,1.563 1.713,1.563 0.381,0 0.81,-0.096 1.153,-0.363 z"></path> </g> <path id="path318" style="fill:#63656a;fill-opacity:1;fill-rule:nonzero;stroke:none" d="m 84.359,16.447 h 0.543 v -4.941 h -0.543 z m -0.152,1.494 c 0,0.248 0.201,0.439 0.43,0.439 0.228,0 0.427,-0.191 0.427,-0.439 0,-0.247 -0.199,-0.437 -0.427,-0.437 -0.229,0 -0.43,0.19 -0.43,0.437"></path> <path id="path320" style="fill:none;stroke:#636569;stroke-width:0.1;stroke-linecap:butt;stroke-linejoin:miter;stroke-miterlimit:10;stroke-dasharray:none;stroke-opacity:1" d="m 84.359,16.447 h 0.543 v -4.941 h -0.543 z m -0.152,1.494 c 0,0.248 0.201,0.439 0.43,0.439 0.228,0 0.427,-0.191 0.427,-0.439 0,-0.247 -0.199,-0.437 -0.427,-0.437 -0.229,0 -0.43,0.19 -0.43,0.437 z"></path> <g transform="translate(87.4082,16.3145)" id="g322"> <path id="path324" style="fill:#63656a;fill-opacity:1;fill-rule:nonzero;stroke:none" d="m 0,0 c 0.209,0.104 0.514,0.229 0.971,0.229 0.781,0 1.334,-0.401 1.334,-1.534 V -4.809 H 1.762 v 3.618 c 0,0.743 -0.362,0.962 -0.867,0.962 C 0.324,-0.229 0,-0.42 -0.41,-0.725 v -4.084 h -0.542 v 4.942 h 0.266 l 0.258,-0.61 z"></path> </g> <g transform="translate(87.4082,16.3145)" id="g326"> <path id="path328" style="fill:none;stroke:#636569;stroke-width:0.1;stroke-linecap:butt;stroke-linejoin:miter;stroke-miterlimit:10;stroke-dasharray:none;stroke-opacity:1" d="m 0,0 c 0.209,0.104 0.514,0.229 0.971,0.229 0.781,0 1.334,-0.401 1.334,-1.534 V -4.809 H 1.762 v 3.618 c 0,0.743 -0.362,0.962 -0.867,0.962 C 0.324,-0.229 0,-0.42 -0.41,-0.725 v -4.084 h -0.542 v 4.942 h 0.266 l 0.258,-0.61 z"></path> </g> <g transform="translate(93.877,14.2666)" id="g330"> <path id="path332" style="fill:#63656a;fill-opacity:1;fill-rule:nonzero;stroke:none" d="M 0,0 V 0.124 C 0,1.371 -0.381,1.828 -1.114,1.828 -1.838,1.828 -2.361,1.505 -2.409,0 Z m -1.02,-2.446 c 0.43,0 0.801,0.123 1.258,0.342 l 0.123,-0.418 c -0.295,-0.163 -0.847,-0.373 -1.418,-0.373 -1.257,0 -1.923,0.847 -1.923,2.599 0,1.828 0.771,2.572 1.866,2.572 1.124,0 1.676,-0.886 1.676,-2.257 v -0.467 h -2.971 c 0.009,-1.494 0.466,-1.998 1.389,-1.998"></path> </g> <g transform="translate(93.877,14.2666)" id="g334"> <path id="path336" style="fill:none;stroke:#636569;stroke-width:0.1;stroke-linecap:butt;stroke-linejoin:miter;stroke-miterlimit:10;stroke-dasharray:none;stroke-opacity:1" d="M 0,0 V 0.124 C 0,1.371 -0.381,1.828 -1.114,1.828 -1.838,1.828 -2.361,1.505 -2.409,0 Z m -1.02,-2.446 c 0.43,0 0.801,0.123 1.258,0.342 l 0.123,-0.418 c -0.295,-0.163 -0.847,-0.373 -1.418,-0.373 -1.257,0 -1.923,0.847 -1.923,2.599 0,1.828 0.771,2.572 1.866,2.572 1.124,0 1.676,-0.886 1.676,-2.257 v -0.467 h -2.971 c 0.009,-1.494 0.466,-1.998 1.389,-1.998 z"></path> </g> <g transform="translate(98.3457,14.2666)" id="g338"> <path id="path340" style="fill:#63656a;fill-opacity:1;fill-rule:nonzero;stroke:none" d="M 0,0 V 0.124 C 0,1.371 -0.381,1.828 -1.115,1.828 -1.838,1.828 -2.361,1.505 -2.41,0 Z m -1.02,-2.446 c 0.428,0 0.8,0.123 1.257,0.342 l 0.124,-0.418 c -0.295,-0.163 -0.847,-0.373 -1.419,-0.373 -1.256,0 -1.922,0.847 -1.922,2.599 0,1.828 0.771,2.572 1.865,2.572 1.124,0 1.676,-0.886 1.676,-2.257 V -0.448 H -2.41 c 0.01,-1.494 0.467,-1.998 1.39,-1.998"></path> </g> <g transform="translate(98.3457,14.2666)" id="g342"> <path id="path344" style="fill:none;stroke:#636569;stroke-width:0.1;stroke-linecap:butt;stroke-linejoin:miter;stroke-miterlimit:10;stroke-dasharray:none;stroke-opacity:1" d="M 0,0 V 0.124 C 0,1.371 -0.381,1.828 -1.115,1.828 -1.838,1.828 -2.361,1.505 -2.41,0 Z m -1.02,-2.446 c 0.428,0 0.8,0.123 1.257,0.342 l 0.124,-0.418 c -0.295,-0.163 -0.847,-0.373 -1.419,-0.373 -1.256,0 -1.922,0.847 -1.922,2.599 0,1.828 0.771,2.572 1.865,2.572 1.124,0 1.676,-0.886 1.676,-2.257 V -0.448 H -2.41 c 0.01,-1.494 0.467,-1.998 1.39,-1.998 z"></path> </g> <g transform="translate(101.1465,16.3613)" id="g346"> <path id="path348" style="fill:#63656a;fill-opacity:1;fill-rule:nonzero;stroke:none" d="m 0,0 c 0.248,0.114 0.477,0.182 0.725,0.182 0.304,0 0.523,-0.068 0.646,-0.125 L 1.258,-0.457 c -0.209,0.086 -0.381,0.133 -0.686,0.133 -0.428,0 -0.715,-0.209 -1.029,-0.476 v -4.055 h -0.542 v 4.941 h 0.267 l 0.257,-0.6 z"></path> </g> <g transform="translate(101.1465,16.3613)" id="g350"> <path id="path352" style="fill:none;stroke:#636569;stroke-width:0.1;stroke-linecap:butt;stroke-linejoin:miter;stroke-miterlimit:10;stroke-dasharray:none;stroke-opacity:1" d="m 0,0 c 0.248,0.114 0.477,0.182 0.725,0.182 0.304,0 0.523,-0.068 0.646,-0.125 L 1.258,-0.457 c -0.209,0.086 -0.381,0.133 -0.686,0.133 -0.428,0 -0.715,-0.209 -1.029,-0.476 v -4.055 h -0.542 v 4.941 h 0.267 l 0.257,-0.6 z"></path> </g> <g transform="translate(106.1582,14.2666)" id="g354"> <path id="path356" style="fill:#63656a;fill-opacity:1;fill-rule:nonzero;stroke:none" d="M 0,0 V 0.124 C 0,1.371 -0.381,1.828 -1.114,1.828 -1.838,1.828 -2.361,1.505 -2.409,0 Z m -1.02,-2.446 c 0.43,0 0.801,0.123 1.258,0.342 l 0.123,-0.418 c -0.295,-0.163 -0.847,-0.373 -1.418,-0.373 -1.257,0 -1.923,0.847 -1.923,2.599 0,1.828 0.771,2.572 1.866,2.572 1.124,0 1.676,-0.886 1.676,-2.257 v -0.467 h -2.971 c 0.009,-1.494 0.466,-1.998 1.389,-1.998"></path> </g> <g transform="translate(106.1582,14.2666)" id="g358"> <path id="path360" style="fill:none;stroke:#636569;stroke-width:0.1;stroke-linecap:butt;stroke-linejoin:miter;stroke-miterlimit:10;stroke-dasharray:none;stroke-opacity:1" d="M 0,0 V 0.124 C 0,1.371 -0.381,1.828 -1.114,1.828 -1.838,1.828 -2.361,1.505 -2.409,0 Z m -1.02,-2.446 c 0.43,0 0.801,0.123 1.258,0.342 l 0.123,-0.418 c -0.295,-0.163 -0.847,-0.373 -1.418,-0.373 -1.257,0 -1.923,0.847 -1.923,2.599 0,1.828 0.771,2.572 1.866,2.572 1.124,0 1.676,-0.886 1.676,-2.257 v -0.467 h -2.971 c 0.009,-1.494 0.466,-1.998 1.389,-1.998 z"></path> </g> <g transform="translate(110.5879,15.6191)" id="g362"> <path id="path364" style="fill:#63656a;fill-opacity:1;fill-rule:nonzero;stroke:none" d="m 0,0 c -0.219,0.171 -0.629,0.467 -1.171,0.467 -0.77,0 -1.21,-0.401 -1.21,-2.01 v -0.133 c 0,-1.572 0.448,-2.105 1.219,-2.105 0.467,0 0.734,0.191 1.162,0.524 z M 0,2.723 H 0.543 V -4.113 H 0.276 l -0.247,0.59 -0.562,-0.543 c -0.143,-0.067 -0.381,-0.143 -0.723,-0.143 -1.096,0 -1.685,0.895 -1.685,2.619 0,1.703 0.675,2.514 1.703,2.514 0.572,0 0.972,-0.258 1.238,-0.496 z"></path> </g> <g transform="translate(110.5879,15.6191)" id="g366"> <path id="path368" style="fill:none;stroke:#636569;stroke-width:0.1;stroke-linecap:butt;stroke-linejoin:miter;stroke-miterlimit:10;stroke-dasharray:none;stroke-opacity:1" d="m 0,0 c -0.219,0.171 -0.629,0.467 -1.171,0.467 -0.77,0 -1.21,-0.401 -1.21,-2.01 v -0.133 c 0,-1.572 0.448,-2.105 1.219,-2.105 0.467,0 0.734,0.191 1.162,0.524 z M 0,2.723 H 0.543 V -4.113 H 0.276 l -0.247,0.59 -0.562,-0.543 c -0.143,-0.067 -0.381,-0.143 -0.723,-0.143 -1.096,0 -1.685,0.895 -1.685,2.619 0,1.703 0.675,2.514 1.703,2.514 0.572,0 0.972,-0.258 1.238,-0.496 z"></path> </g> <g transform="translate(112.4473,11.9727)" id="g370"> <path id="path372" style="fill:#63656a;fill-opacity:1;fill-rule:nonzero;stroke:none" d="M 0,0 C 0,0.332 0.258,0.561 0.543,0.561 0.848,0.561 1.096,0.332 1.096,0 1.096,-0.324 0.848,-0.553 0.543,-0.553 0.258,-0.553 0,-0.324 0,0"></path> </g> <g transform="translate(112.4473,11.9727)" id="g374"> <path id="path376" style="fill:none;stroke:#636569;stroke-width:0.1;stroke-linecap:butt;stroke-linejoin:miter;stroke-miterlimit:10;stroke-dasharray:none;stroke-opacity:1" d="M 0,0 C 0,0.332 0.258,0.561 0.543,0.561 0.848,0.561 1.096,0.332 1.096,0 1.096,-0.324 0.848,-0.553 0.543,-0.553 0.258,-0.553 0,-0.324 0,0 Z"></path> </g> <path id="path378" style="fill:none;stroke:#63656a;stroke-width:0.65799999;stroke-linecap:butt;stroke-linejoin:miter;stroke-miterlimit:10;stroke-dasharray:none;stroke-opacity:1" d="m 64.836,1.962 h 57.556 V 59.518 H 64.836 Z"></path> </g> </g> </g> </svg> 