<?xml version="1.0" encoding="utf-8"?>
<!-- Generator: Adobe Illustrator 21.0.0, SVG Export Plug-In . SVG Version: 6.00 Build 0)  -->
<svg version="1.1" id="Layer_1" xmlns="http://www.w3.org/2000/svg" xmlns:xlink="http://www.w3.org/1999/xlink" x="0px" y="0px"
	 viewBox="0 0 280 120" style="enable-background:new 0 0 280 120;" xml:space="preserve">
<style type="text/css">
	.st0{fill:#D1D3D4;}
	.st1{fill:url(#SVGID_1_);}
	.st2{fill:#FFFFFF;}
	.st3{fill:#E6E7E8;}
	.st4{opacity:0.55;fill:url(#SVGID_2_);}
	.st5{opacity:0.55;fill:url(#SVGID_3_);}
	.st6{fill:url(#SVGID_4_);}
	.st7{fill:url(#SVGID_5_);}
	.st8{fill:url(#SVGID_6_);}
	.st9{stroke:#2E3192;}
	.st10{stroke:#2E9ACF;}
	.st11{fill:#FFFFFF;stroke:#F1F2F2;}
	.st12{fill:url(#SVGID_7_);}
	.st13{fill:url(#SVGID_8_);}
	.st14{fill:url(#SVGID_9_);}
	.st15{fill:url(#SVGID_10_);}
	.st16{fill:url(#SVGID_11_);}
	.st17{fill:#2E3192;}
	.st18{fill:url(#SVGID_12_);}
	.st19{fill:#F4F4F4;}
	.st20{fill:url(#SVGID_13_);}
	.st21{fill:#F1F2F2;}
	.st22{fill:url(#SVGID_14_);}
	.st23{fill:url(#SVGID_15_);}
	.st24{fill:#FFFFFF;stroke:#000000;stroke-width:0.4738;}
	.st25{fill:none;stroke:#000000;stroke-width:0.5082;}
	.st26{fill:url(#SVGID_16_);}
	.st27{fill:url(#SVGID_17_);}
	.st28{fill:url(#SVGID_18_);}
	.st29{fill:#050205;}
	.st30{fill:#333334;}
	.st31{fill:#545456;}
	.st32{fill:url(#SVGID_19_);}
	.st33{fill:url(#SVGID_20_);}
	.st34{fill:url(#SVGID_21_);}
</style>
<ellipse transform="matrix(1 -4.218846e-03 4.218846e-03 1 -0.3026 0.2389)" class="st0" cx="56.5" cy="71.8" rx="22.1" ry="6.8"/>
<linearGradient id="SVGID_1_" gradientUnits="userSpaceOnUse" x1="34.2791" y1="70.5952" x2="74.8443" y2="70.5952">
	<stop  offset="0" style="stop-color:#D0D2D3"/>
	<stop  offset="4.907980e-02" style="stop-color:#FFFFFF"/>
	<stop  offset="1" style="stop-color:#5A5B5D"/>
</linearGradient>
<ellipse class="st1" cx="54.6" cy="70.6" rx="20.3" ry="6.2"/>
<ellipse class="st2" cx="54.6" cy="69.9" rx="20.3" ry="6.2"/>
<ellipse class="st3" cx="54.6" cy="69.9" rx="20" ry="5.8"/>
<linearGradient id="SVGID_2_" gradientUnits="userSpaceOnUse" x1="45.6578" y1="70.5802" x2="63.2845" y2="70.5802">
	<stop  offset="0" style="stop-color:#D0D2D3"/>
	<stop  offset="4.907980e-02" style="stop-color:#FFFFFF"/>
	<stop  offset="1" style="stop-color:#5A5B5D"/>
</linearGradient>
<rect x="45.7" y="67.9" class="st4" width="17.6" height="5.4"/>
<linearGradient id="SVGID_3_" gradientUnits="userSpaceOnUse" x1="46.6756" y1="73.1523" x2="63.6468" y2="67.638">
	<stop  offset="0" style="stop-color:#C9CBCD"/>
	<stop  offset="0.2147" style="stop-color:#F5F5F5"/>
	<stop  offset="0.4969" style="stop-color:#FFFFFF"/>
	<stop  offset="0.7301" style="stop-color:#F1F1F2"/>
	<stop  offset="1" style="stop-color:#9B9DA0"/>
</linearGradient>
<rect x="46.1" y="67.9" class="st5" width="17" height="5.4"/>
<linearGradient id="SVGID_4_" gradientUnits="userSpaceOnUse" x1="-124.1992" y1="63.2108" x2="-124.1779" y2="58.8644" gradientTransform="matrix(4.9921 -5.630000e-02 2.440000e-02 2.1661 673.1646 -69.1243)">
	<stop  offset="0.3129" style="stop-color:#FFFFFF"/>
	<stop  offset="0.7791" style="stop-color:#FFFFFF;stop-opacity:0"/>
</linearGradient>
<path class="st6" d="M71.3,69.9c0,2.6-7.4,4.8-16.6,4.9c-9.2,0.1-16.6-1.9-16.7-4.5c0-2.6,7.4-4.8,16.6-4.9
	C63.8,65.3,71.3,67.3,71.3,69.9z"/>
<linearGradient id="SVGID_5_" gradientUnits="userSpaceOnUse" x1="45.7483" y1="60.3937" x2="63.375" y2="60.3937">
	<stop  offset="0" style="stop-color:#D0D2D3"/>
	<stop  offset="4.907980e-02" style="stop-color:#FFFFFF"/>
	<stop  offset="1" style="stop-color:#5A5B5D"/>
</linearGradient>
<rect x="45.7" y="53.3" class="st7" width="17.6" height="14.1"/>
<linearGradient id="SVGID_6_" gradientUnits="userSpaceOnUse" x1="45.381" y1="63.357" x2="64.9335" y2="57.0041">
	<stop  offset="0" style="stop-color:#C9CBCD"/>
	<stop  offset="0.2147" style="stop-color:#F5F5F5"/>
	<stop  offset="0.4969" style="stop-color:#FFFFFF"/>
	<stop  offset="0.7301" style="stop-color:#F1F1F2"/>
	<stop  offset="1" style="stop-color:#9B9DA0"/>
</linearGradient>
<rect x="46" y="53.3" class="st8" width="17" height="14.1"/>
<rect x="2.2" y="61.5" width="136.2" height="3.6"/>
<g>
	<g>
		<path class="st9" d="M243.4,82.9c-0.5,0-0.9-0.3-1-0.8c0-0.2-0.2-1,0.5-2c1.8-2.2,7.2-3.3,16.1-3.1c12.3,0.3,16.8-2.1,16.9-4.2
			c0.1-3-7.4-7.8-18-8.5c-1.7-0.1-3-0.9-3.8-2.3c-0.7-1.3-0.9-3-0.8-5c-0.4,0.8-0.8,1.7-1.2,2.5c-3.5,7.5-9.4,9.1-13.4,7.4
			c-1.3-0.5-2.5-1.5-3.3-2.8c-0.9,0.4-1.8,0.9-2.8,1.3c-0.2,0.1-0.4,0.2-0.5,0.2c-0.3,0.1-0.6,0.3-0.9,0.5c-1.9,1-4.3,2.2-5.7,0.9
			c-1.3-1.2-0.9-3.9,1.6-9.1c1-2.2,1.4-3.4,1.5-4c-2.2,1.1-8.6,7.4-13.7,13.2c-0.3,0.4-0.9,0.5-1.4,0.2c-0.4-0.3-0.6-0.8-0.4-1.3
			l2.7-6.8l-1.5,2.3c0,0-0.1,0.1-0.1,0.1c-4.6,5.1-7.2,6.8-8.9,5.7c-2.2-1.4-0.5-7,0.7-10.3c0,0,0-0.1,0-0.1c1.2-2.4,2.1-5,2.1-6
			c0,0-0.1,0-0.1,0c-1.7,0.7-2.9,0.4-3.6,0c-0.3-0.2-0.5-0.4-0.7-0.6c-0.9,2.8-2.3,5.4-2.4,5.5c-5.1,9.6-11.9,13-16,11.5
			c-1.4-0.5-2.4-1.6-2.9-3c-0.7,0.3-1.4,0.7-2,1c-0.6,0.3-1.1,0.5-1.6,0.8c-3.3,1.6-5.1,1.9-6.2,1c-1.4-1.1-0.7-3.3,0-5.9
			c0.2-0.6,0.4-1.2,0.5-1.9c0.1-0.5,0.4-1.5,0.8-2.7c-1.5,2.7-3,5.1-4.5,6.7c-3.5,3.7-5.6,4.8-7,3.9c-1.4-0.9-1.7-3.2,1.3-11.8
			c0.4-1.3,0.6-2,0.6-2.4c-2.2,1-8.6,7.7-13.8,13.9c-0.3,0.4-0.9,0.5-1.4,0.2c-0.5-0.3-0.7-0.8-0.5-1.3l1.4-3.7
			c-0.6,0.7-1.2,1.3-1.8,2c-1.8,1.8-4.5,4.1-6.4,2.8c-1.6-1.1-1.3-3.9-0.8-5.1c0.2-0.5,0.7-1.3,1.4-2.6c2.3-4,6.9-12.2,11.3-23.1
			c1.4-3.5,1.3-5.1,0.7-5.5c-2.1-1.4-12.2,4.6-20.8,13.6c-3.5,3.6-5.2,4.7-6.4,3.9c-1.6-1-0.7-3.7,1.4-9.2c0.8-2.1,1.7-4.5,1.7-5.4
			c0-0.9-0.5-1.2-2.3-1.8c-0.6-0.2-1.2-0.4-1.7-0.7c-1.7,5.5-7.3,13.6-11.8,15.4c-2.2,0.9-3.6,0.2-4.5-0.5c-4.6-4-0.3-15.2,3.5-25
			c1.3-3.5,2.6-6.8,3.2-9.1c-3.1,4.2-10,16.2-16,27.4c-0.2,0.5-0.8,0.7-1.3,0.5c-0.5-0.2-0.8-0.7-0.7-1.2l3-22.6L84.6,51.8
			c-0.3,0.5-0.9,0.8-1.4,0.5c-0.5-0.3-0.8-0.9-0.5-1.4l19.7-42c0.2-0.5,0.8-0.7,1.3-0.6c0.5,0.2,0.8,0.7,0.8,1.2l-3.2,23.8
			c1.5-2.8,3.5-6.3,5.5-9.8c2.5-4.3,4.6-7.8,6.2-10.2c3-4.5,3.9-5.1,5-4.8c0.5,0.2,1.1,0.6,1,2c-0.2,2.5-1.8,6.7-3.7,11.5
			c-3.2,8.3-7.6,19.6-4.1,22.6c0.4,0.3,1,0.7,2.2,0.1c4.4-1.8,10.6-11.4,10.9-15.9c0-0.6,0.5-1,1.1-1c0,0,0,0,0,0c0.6,0,1,0.4,1.1,1
			c0,0.5,0.8,0.8,1.9,1.2c1.5,0.5,3.8,1.3,3.8,3.9c0,1.1-0.7,3-1.8,6.1c-0.7,1.9-1.8,4.8-2,6.2c0.6-0.4,1.6-1.2,3.4-3.1
			c7.2-7.5,19.2-16.8,23.6-14c2.7,1.7,0.8,6.5,0.2,8.1c-4.4,11-9.1,19.3-11.4,23.3c-0.7,1.2-1.2,2.1-1.3,2.4c-0.4,0.8-0.3,2.3,0,2.4
			c0,0,0.9,0.3,3.7-2.5c4.1-4.1,6.4-8.5,7.4-10.9l0.7-1.7c0.2-0.5,0.8-0.8,1.4-0.6c0.6,0.2,0.9,0.8,0.7,1.3c0,0.1-0.3,0.8-0.8,2
			l-3.1,8.1c0.9-1,1.8-2,2.8-3c7.1-7.5,8.8-7.5,9.9-6.9c1.4,0.8,0.9,3.1,0.2,5.2c-2.3,6.6-2.3,8.6-2.1,9.1c0.4-0.1,1.6-0.7,4.3-3.5
			c5-5.2,10.7-20.4,13.2-26.9c0.6-1.5,0.9-2.5,1.1-2.9c0.5-1.1,1.4-0.7,1.5-0.7c1,0.4,0.7,1.3,0.4,2.2c-0.2,0.5-0.4,1.3-0.7,2.2
			c-0.6,1.8-1.5,4.3-2.4,7c-2.3,6.8-5.2,15.2-5.7,17.2c-0.2,0.7-0.3,1.3-0.5,1.9c-0.3,1.2-0.9,3.1-0.7,3.6c0.2,0,1,0.2,3.9-1.3
			c0.5-0.3,1.1-0.5,1.6-0.8c0.8-0.4,1.6-0.8,2.5-1.2c-0.1-1.2,0-2.5,0.4-4c2.1-8.5,6.8-9.8,8.7-9.9c1.6-0.1,3.5,0.4,3.9,1.5
			c0,0,0,0.1,0,0.1c1.8,6-4.6,10.4-10.6,13.5c0.3,0.9,0.9,1.6,1.7,1.9c2.7,1,8.5-1.6,13.3-10.5c0-0.1,2.8-5.2,3-8.3
			c0-0.6,0.5-1,1.1-1c0,0,0,0,0,0c0.6,0,1,0.5,1.1,1c0.1,1,0.4,2.1,1,2.5c0.4,0.2,0.9,0.2,1.6-0.1c1.4-0.6,2.2-0.2,2.6,0.3
			c1.4,1.5-0.2,5.5-1.8,8.6c-1.2,3.2-1.9,6.8-1.6,7.6c0.4,0,1.9-0.6,6.1-5.2l7.2-11c0.3-0.5,0.9-0.6,1.4-0.4
			c0.5,0.3,0.7,0.8,0.5,1.4l-4.4,11.2c0.9-1,1.9-2,3-3.1c7.2-7.2,8.8-7.1,9.8-6.4c1.3,0.8,1,2.7-1,7c-2.3,5.1-2.1,6.4-2,6.6
			c0.6,0.1,2.5-0.9,3.2-1.2c0.4-0.2,0.7-0.4,1-0.5c0.1-0.1,0.3-0.1,0.6-0.3c1-0.5,2-0.9,2.8-1.3c-0.4-1.5-0.3-3.3,0.4-5.3
			c2.9-7.6,7.7-9,10.1-8.6c1.4,0.2,2,0.9,2.1,1.6c0.7,1.4,0.7,2.9,0.2,4.4c-1.1,3-4.4,5.9-10,8.9c0.5,0.8,1.3,1.4,2.2,1.8
			c3.1,1.3,7.7-0.1,10.6-6.3c2.1-4.4,4.1-9,5.9-13.1c2.1-5.9,4.7-11.1,5.3-12.2c0.3-0.5,0.9-0.7,1.4-0.5c0.5,0.2,0.8,0.9,0.5,1.4
			c0,0.1-2.2,5.1-5.1,11.8c-2.2,6-3.7,12.3-2.2,14.9c0.4,0.7,1.1,1.1,2,1.2c10.9,0.7,20.2,5.8,20,10.8c-0.1,2.5-2.7,6.6-19.1,6.3
			c-13.1-0.3-14.4,2.3-14.4,2.5c0.1,0.5-0.3,1.1-0.8,1.2C243.6,82.9,243.5,82.9,243.4,82.9L243.4,82.9z M244.3,50.3
			c-0.3,0-0.6,0-1,0.1c-1.2,0.3-4.2,1.6-6.3,7.1c-0.5,1.3-0.6,2.5-0.5,3.5c6.1-3.3,8.2-5.9,8.8-7.6c0.4-1,0.3-1.9-0.2-2.9
			c0-0.1-0.1-0.1-0.1-0.2C244.9,50.4,244.7,50.3,244.3,50.3L244.3,50.3z M191.3,50.4c-0.4,0-0.9,0.1-1.5,0.2
			c-1.8,0.6-4.3,2.4-5.6,8.1c-0.2,0.9-0.3,1.7-0.4,2.4c5-2.7,9.9-6.2,8.9-10.4C192.5,50.5,192,50.4,191.3,50.4L191.3,50.4z"/>
	</g>
	<g>
		<path class="st10" d="M174.2,44.9c-0.5,0-1-0.4-1.1-0.9c-0.1-0.6,0.3-1.1,0.9-1.2l9.4-1.3c0.6-0.1,1.1,0.3,1.2,0.9
			c0.1,0.6-0.3,1.1-0.9,1.2l-9.4,1.3C174.3,44.9,174.3,44.9,174.2,44.9L174.2,44.9z"/>
	</g>
	<g>
		<path class="st10" d="M253.9,44.5c-0.6,0-1-0.4-1.1-1c0-0.6,0.4-1.1,1-1.2l9.1-0.6c0.6,0,1.1,0.4,1.2,1c0,0.6-0.4,1.1-1,1.2
			L253.9,44.5C253.9,44.5,253.9,44.5,253.9,44.5L253.9,44.5z"/>
	</g>
</g>
<ellipse transform="matrix(0.9066 -0.4221 0.4221 0.9066 -19.307 103.9961)" class="st0" cx="225.2" cy="95.6" rx="31" ry="11.9"/>
<path class="st11" d="M257.7,61.4c-1-0.1-1.6-0.4-2-1.2c-1.5-2.7,0-8.9,2.2-14.9c0.3-0.6,0.5-1.2,0.8-1.8l4.1-0.3
	c0.6,0,1.1-0.6,1-1.2c0-0.6-0.6-1.1-1.2-1l-2.9,0.2c2-4.6,3.3-7.7,3.3-7.7c0.2-0.5,0-1.2-0.5-1.4c-0.5-0.2-1.2,0-1.4,0.5
	c-0.4,0.9-2.2,4.4-4,8.8l-3.5,0.2c-0.6,0-1.1,0.6-1,1.2c0,0.6,0.5,1,1.1,1c0,0,0,0,0.1,0l2.5-0.2c-0.1,0.4-0.3,0.7-0.4,1.1
	c-1.8,4.1-3.9,8.7-5.9,13.1c-2.9,6.2-7.5,7.6-10.6,6.3c-0.9-0.4-1.6-1-2.2-1.8c5.7-3,9-5.9,10-8.9c0.5-1.5,0.5-3-0.2-4.4
	c-0.2-0.7-0.8-1.4-2.1-1.6c-2.4-0.4-7.2,1-10.1,8.6c-0.8,2-0.8,3.8-0.4,5.3c-0.9,0.4-1.8,0.9-2.8,1.3c-0.2,0.1-0.4,0.2-0.6,0.3
	c-0.3,0.1-0.7,0.3-1,0.5c-0.7,0.4-2.6,1.4-3.2,1.2c-0.1-0.2-0.3-1.5,2-6.6c2-4.3,2.2-6.2,1-7c-1-0.7-2.7-0.7-9.8,6.4
	c-1,1-2,2.1-3,3.1l4.4-11.2c0.2-0.5,0-1.1-0.5-1.4c-0.5-0.3-1.1-0.1-1.4,0.4l-7.2,11c-4.3,4.7-5.7,5.2-6.1,5.2
	c-0.4-0.8,0.3-4.3,1.6-7.6c1.6-3.1,3.1-7.2,1.8-8.6c-0.4-0.4-1.2-0.8-2.6-0.3c-0.7,0.3-1.2,0.3-1.6,0.1c-0.6-0.4-1-1.5-1-2.5
	c0-0.6-0.5-1-1.1-1c0,0,0,0,0,0c-0.6,0-1,0.4-1.1,1c-0.2,3.1-2.9,8.2-3,8.3c-4.8,8.9-10.7,11.5-13.3,10.5c-0.8-0.3-1.4-1-1.7-1.9
	c6-3.2,12.4-7.5,10.6-13.5c0,0,0-0.1,0-0.1c-0.5-1.1-2.3-1.6-3.9-1.5c-1.9,0.1-6.6,1.4-8.7,9.9c-0.4,1.5-0.5,2.8-0.4,4
	c-0.9,0.4-1.7,0.9-2.5,1.2c-0.6,0.3-1.1,0.5-1.6,0.8c-2.9,1.4-3.7,1.3-3.9,1.3c-0.2-0.5,0.3-2.4,0.7-3.6c0.2-0.6,0.4-1.3,0.5-1.9
	c0.5-1.9,3-9.3,5.2-15.8l3.6-0.5c0.6-0.1,1-0.6,0.9-1.2c-0.1-0.6-0.6-1-1.2-0.9l-2.6,0.4c0.8-2.3,1.5-4.4,2-6
	c0.3-0.9,0.6-1.7,0.7-2.2c0.3-0.9,0.6-1.8-0.4-2.2c-0.1,0-1-0.4-1.5,0.7c-0.2,0.4-0.6,1.4-1.1,2.9c-0.7,1.8-1.7,4.4-2.8,7.2
	l-3.8,0.5c-0.6,0.1-1,0.6-0.9,1.2c0.1,0.5,0.5,0.9,1.1,0.9c0.1,0,0.1,0,0.2,0l2.6-0.4c-2.7,6.6-6.2,14.1-9.4,17.4
	c-2.7,2.8-3.9,3.4-4.3,3.5c-0.1-0.5-0.2-2.5,2.1-9.1c0.7-2.1,1.3-4.3-0.2-5.2c-1.1-0.6-2.8-0.6-9.9,6.9c-1,1-1.9,2-2.8,3l3.1-8.1
	c0.5-1.2,0.7-1.9,0.8-2c0.2-0.6-0.1-1.2-0.7-1.3c-0.6-0.2-1.2,0.1-1.4,0.6l-0.7,1.7c-1,2.3-3.3,6.7-7.4,10.9
	c-2.8,2.8-3.7,2.5-3.7,2.5c-0.3-0.2-0.3-1.6,0-2.4c0.1-0.3,0.7-1.3,1.3-2.4c2.3-4,7-12.4,11.4-23.3c0.6-1.6,2.5-6.4-0.2-8.1
	c-4.3-2.8-16.4,6.5-23.6,14c-1.8,1.9-2.9,2.7-3.4,3.1c0.2-1.4,1.3-4.3,2-6.2c1.1-3,1.8-5,1.8-6.1c0-2.6-2.3-3.4-3.8-3.9
	c-1.2-0.4-1.9-0.7-1.9-1.2c-0.1-0.6-0.5-1-1.1-1c0,0,0,0,0,0c-0.6,0-1,0.4-1.1,1c-0.4,4.5-6.5,14.1-10.9,15.9
	c-1.3,0.5-1.9,0.2-2.2-0.1c-3.5-3,0.9-14.3,4.1-22.6c1.9-4.8,3.5-8.9,3.7-11.5c0.1-1.4-0.5-1.9-1-2c-1-0.3-2,0.3-5,4.8
	c-1.6,2.4-3.7,5.9-6.2,10.2c-2,3.5-4,7.1-5.5,9.8l3.2-23.8c0.1-0.5-0.3-1-0.8-1.2c-0.5-0.2-1.1,0.1-1.3,0.6l-19.7,42
	c-0.3,0.5,0,1.2,0.5,1.4c0.5,0.3,1.2,0,1.4-0.5l16.7-35.6l-3,22.6c-0.1,0.5,0.2,1,0.7,1.2c0.5,0.2,1-0.1,1.3-0.5
	c6-11.2,11.9-20.5,15-24.8c-0.6,2.3-0.9,3-2.2,6.5c-3.8,9.9-8.2,21-3.5,25c0.8,0.7,2.3,1.4,4.5,0.5c4.5-1.8,10.1-9.9,11.8-15.4
	c0.6,0.3,1.2,0.5,1.7,0.7c1.8,0.6,2.3,0.9,2.3,1.8c0,0.8-0.9,3.2-1.7,5.4c-2.1,5.5-3,8.2-1.4,9.2c1.2,0.8,2.9-0.2,6.4-3.9
	c8.6-9,18.7-15,20.8-13.6c0.6,0.4,0.7,2-0.7,5.5c-4.3,10.8-9,19.1-11.3,23.1c-0.8,1.4-1.2,2.2-1.4,2.6c-0.5,1.2-0.8,4,0.8,5.1
	c1.9,1.3,4.6-1,6.4-2.8c0.7-0.6,1.3-1.3,1.8-2l-1.4,3.7c-0.2,0.5,0,1.1,0.5,1.3c0.5,0.3,1,0.2,1.4-0.2c5.2-6.2,11.6-12.9,13.8-13.9
	c0,0.4-0.2,1.1-0.6,2.4c-3,8.6-2.7,10.9-1.3,11.8c1.4,0.9,3.5-0.3,7-3.9c1.5-1.6,3-3.9,4.5-6.7c-0.4,1.2-0.7,2.1-0.8,2.7
	c-0.2,0.6-0.3,1.2-0.5,1.9c-0.7,2.5-1.4,4.7,0,5.9c1.1,0.9,3,0.6,6.2-1c0.5-0.3,1.1-0.5,1.6-0.8c0.7-0.3,1.3-0.7,2-1
	c0.5,1.4,1.5,2.4,2.9,3c4.1,1.5,10.9-1.9,16-11.5c0.1-0.2,1.5-2.8,2.4-5.5c0.2,0.2,0.4,0.4,0.7,0.6c0.7,0.4,1.9,0.8,3.6,0
	c0,0,0.1,0,0.1,0c0,1-0.9,3.6-2.1,6c0,0,0,0.1,0,0.1c-1.2,3.2-2.9,8.9-0.7,10.3c1.7,1,4.3-0.6,8.9-5.7c0,0,0.1-0.1,0.1-0.1l1.5-2.3
	l-2.7,6.8c-0.2,0.5,0,1,0.4,1.3c0.5,0.3,1,0.2,1.4-0.2c5.1-5.8,11.4-12.1,13.7-13.2c-0.1,0.6-0.4,1.8-1.5,4
	c-2.4,5.2-2.9,7.9-1.6,9.1c1.4,1.3,3.8,0.1,5.7-0.9c0.3-0.2,0.7-0.3,0.9-0.5c0.1-0.1,0.3-0.1,0.5-0.2c1-0.4,1.9-0.9,2.8-1.3
	c0.8,1.3,2,2.2,3.3,2.8c4,1.7,9.9,0.1,13.4-7.4c0.4-0.8,0.8-1.7,1.2-2.5c-0.1,2,0.1,3.8,0.8,5c0.8,1.4,2.1,2.2,3.8,2.3
	c10.6,0.7,18.1,5.6,18,8.5c-0.1,2.1-4.6,4.4-16.9,4.2c-8.9-0.2-14.3,0.9-16.1,3.1c-0.8,1-0.6,1.8-0.5,2c0.1,0.5,0.6,0.8,1,0.8
	c0.1,0,0.2,0,0.3,0c0.5-0.1,0.9-0.7,0.8-1.2c0.1-0.2,1.3-2.8,14.4-2.5c16.3,0.3,19-3.8,19.1-6.3C278,67.1,268.6,62.1,257.7,61.4z
	 M184,57.9c1.4-5.6,3.8-7.5,5.6-8.1c0.5-0.2,1-0.2,1.5-0.2c0.7,0,1.2,0.2,1.4,0.3c1,4.2-3.9,7.7-8.9,10.4
	C183.7,59.6,183.8,58.8,184,57.9z M236.7,56.8c2.1-5.5,5.1-6.8,6.3-7.1c0.4-0.1,0.7-0.1,1-0.1c0.4,0,0.7,0.1,0.8,0.1
	c0,0.1,0,0.1,0.1,0.2c0.5,0.9,0.5,1.9,0.2,2.9c-0.6,1.7-2.7,4.3-8.8,7.6C236.1,59.3,236.2,58.1,236.7,56.8z"/>
<g>
	<linearGradient id="SVGID_7_" gradientUnits="userSpaceOnUse" x1="22.6464" y1="44.304" x2="90.9379" y2="22.1148">
		<stop  offset="0" style="stop-color:#FFFFFF"/>
		<stop  offset="1" style="stop-color:#3B3B3C"/>
	</linearGradient>
	<rect x="24.6" y="9.9" class="st12" width="59.8" height="48.2"/>
	<linearGradient id="SVGID_8_" gradientUnits="userSpaceOnUse" x1="22.886" y1="44.2262" x2="90.6638" y2="22.2038">
		<stop  offset="0" style="stop-color:#A5A7AA"/>
		<stop  offset="0.411" style="stop-color:#FFFFFF"/>
		<stop  offset="1" style="stop-color:#95979A"/>
	</linearGradient>
	<rect x="24.8" y="10" class="st13" width="59.4" height="47.8"/>
	<linearGradient id="SVGID_9_" gradientUnits="userSpaceOnUse" x1="27.7041" y1="33.5969" x2="81.4921" y2="33.5969">
		<stop  offset="0" style="stop-color:#949699"/>
		<stop  offset="0.2638" style="stop-color:#FFFFFF"/>
		<stop  offset="1" style="stop-color:#5A5B5D"/>
	</linearGradient>
	<rect x="27.7" y="12.2" class="st14" width="53.8" height="42.8"/>
	<linearGradient id="SVGID_10_" gradientUnits="userSpaceOnUse" x1="76.2582" y1="58.3357" x2="32.938" y2="8.5014">
		<stop  offset="0" style="stop-color:#1B75BC"/>
		<stop  offset="3.990554e-03" style="stop-color:#1E70B9"/>
		<stop  offset="1.931729e-02" style="stop-color:#2361AE"/>
		<stop  offset="3.668058e-02" style="stop-color:#2853A4"/>
		<stop  offset="5.629577e-02" style="stop-color:#2A479D"/>
		<stop  offset="7.920264e-02" style="stop-color:#2C3D98"/>
		<stop  offset="0.1075" style="stop-color:#2E3695"/>
		<stop  offset="0.1473" style="stop-color:#2E3293"/>
		<stop  offset="0.2577" style="stop-color:#2E3192"/>
		<stop  offset="0.4399" style="stop-color:#2E3191"/>
		<stop  offset="0.5437" style="stop-color:#2C3490"/>
		<stop  offset="0.6278" style="stop-color:#283A8F"/>
		<stop  offset="0.7014" style="stop-color:#24408E"/>
		<stop  offset="0.768" style="stop-color:#1E478B"/>
		<stop  offset="0.8289" style="stop-color:#164C87"/>
		<stop  offset="0.8712" style="stop-color:#0E4F82"/>
		<stop  offset="0.9939" style="stop-color:#00254A"/>
	</linearGradient>
	<rect x="28.3" y="12.5" class="st15" width="52.6" height="41.7"/>
	<linearGradient id="SVGID_11_" gradientUnits="userSpaceOnUse" x1="42.8652" y1="12.4945" x2="42.8652" y2="54.1755">
		<stop  offset="0" style="stop-color:#FFFFFF"/>
		<stop  offset="1" style="stop-color:#FFFFFF;stop-opacity:0"/>
	</linearGradient>
	<polygon class="st16" points="56.8,12.5 47.8,38.7 57.4,37.8 53.8,54.2 28.3,54.2 28.3,12.5 	"/>
</g>
<g>
	<path class="st2" d="M90.3,71.6h-7v2.8h6.2c0.9,0,1.5,0.2,1.8,0.5c0.3,0.3,0.5,0.9,0.5,1.8v1.1c0,0.9-0.2,1.5-0.5,1.9
		c-0.3,0.3-0.9,0.5-1.8,0.5h-5.8c-0.9,0-1.5-0.2-1.8-0.5c-0.3-0.3-0.5-0.9-0.5-1.9v-0.3l1.5-0.4v1.6h7.4v-3h-6.2
		c-0.9,0-1.5-0.2-1.8-0.5c-0.3-0.3-0.5-0.9-0.5-1.9v-0.9c0-0.9,0.2-1.5,0.5-1.9c0.3-0.3,0.9-0.5,1.8-0.5h5.3c0.8,0,1.4,0.2,1.8,0.5
		c0.4,0.3,0.5,0.9,0.5,1.7v0.2L90.3,73V71.6z"/>
	<path class="st2" d="M98.9,80.1v-3.6L94.7,72h1.9l3.2,3.5l3.1-3.5h1.8l-4.2,4.6v3.6H98.9z"/>
	<path class="st2" d="M114.2,73.2h-5.7v2.1h5.2c0.8,0,1.3,0.1,1.6,0.4c0.3,0.3,0.4,0.8,0.4,1.5v1c0,0.7-0.1,1.3-0.4,1.5
		c-0.3,0.3-0.8,0.4-1.6,0.4h-5c-0.8,0-1.3-0.1-1.6-0.4c-0.3-0.3-0.4-0.8-0.4-1.5V78l1.4-0.3v1.2h6.1v-2.3h-5.2
		c-0.8,0-1.3-0.1-1.6-0.4c-0.3-0.3-0.4-0.8-0.4-1.5v-0.8c0-0.8,0.1-1.3,0.4-1.5c0.3-0.3,0.8-0.4,1.6-0.4h4.5c0.7,0,1.2,0.1,1.5,0.4
		c0.3,0.3,0.5,0.7,0.5,1.4V74l-1.4,0.3V73.2z"/>
	<path class="st2" d="M123.2,73.2v6.9h-1.5v-6.9h-3.8V72h9.2v1.2H123.2z"/>
	<path class="st2" d="M129.3,80.1V72h8.2v1.2h-6.7v2.1h4v1.2h-4v2.4h6.7v1.2H129.3z"/>
	<path class="st2" d="M141.7,73.5l0,1.1v5.5h-1.3V72h1.3l4.1,5.3l3.7-5.3h1.4v8.1h-1.4v-5.5c0-0.4,0-0.8,0.1-1.1
		c-0.2,0.5-0.4,0.9-0.5,1.1l-3.1,4.2h-0.4l-3.2-4.2C142,74.4,141.9,74,141.7,73.5z"/>
	<path class="st2" d="M161.9,73.2h-5.7v2.1h5.2c0.8,0,1.3,0.1,1.6,0.4c0.3,0.3,0.4,0.8,0.4,1.5v1c0,0.7-0.1,1.3-0.4,1.5
		c-0.3,0.3-0.8,0.4-1.6,0.4h-5c-0.8,0-1.3-0.1-1.6-0.4c-0.3-0.3-0.4-0.8-0.4-1.5V78l1.4-0.3v1.2h6.1v-2.3h-5.2
		c-0.8,0-1.3-0.1-1.6-0.4c-0.3-0.3-0.4-0.8-0.4-1.5v-0.8c0-0.8,0.1-1.3,0.4-1.5c0.3-0.3,0.8-0.4,1.6-0.4h4.5c0.7,0,1.2,0.1,1.5,0.4
		c0.3,0.3,0.5,0.7,0.5,1.4V74l-1.4,0.3V73.2z"/>
	<path class="st2" d="M174.8,80.1v-9.9h1.7v9.9H174.8z"/>
	<path class="st2" d="M182.2,73.6c0.1,0.5,0.1,1,0.1,1.5v5h-1.4V72h1.2l6,5.3c0.4,0.3,0.7,0.7,1,1.1c-0.1-0.5-0.1-1-0.1-1.5V72h1.4
		v8.1h-1.1l-6.1-5.4C182.8,74.4,182.5,74,182.2,73.6z"/>
	<path class="st2" d="M201.1,73.2h-5.7v5.7h5.7V77l1.5,0.3v1c0,0.7-0.1,1.2-0.4,1.5c-0.3,0.3-0.8,0.4-1.6,0.4h-4.8
		c-0.8,0-1.3-0.1-1.6-0.4c-0.3-0.3-0.4-0.8-0.4-1.5v-4.3c0-0.8,0.1-1.3,0.4-1.5c0.3-0.3,0.8-0.4,1.6-0.4h4.8c0.8,0,1.3,0.1,1.6,0.4
		c0.3,0.3,0.4,0.8,0.4,1.5v0.8l-1.5,0.2V73.2z"/>
	<path class="st2" d="M208.1,78c0.2,0,0.4,0,0.5,0.1c0.1,0.1,0.1,0.2,0.1,0.4v1.1c0,0.2,0,0.4-0.1,0.4c-0.1,0.1-0.2,0.1-0.5,0.1
		h-1.2c-0.2,0-0.3,0-0.3-0.1c0-0.1-0.1-0.2-0.1-0.4v-1.1c0-0.2,0-0.4,0.1-0.4c0.1-0.1,0.2-0.1,0.5-0.1H208.1z"/>
</g>
<g>
	<path class="st17" d="M217.1,109.7c5.6-16.9,38.7-27,38.7-27l-0.1-0.6l-0.6-0.6l-16.6-4.9l-5.3-0.3l-14,3.3l-11.5,6.3l-5.5,7.1
		l-2.7,1.2c0,0-2.2,4.1-0.7,8.1c1.5,4.1,8,9.6,17.5,7.6C216.5,109.9,217,110,217.1,109.7z"/>
	<path class="st2" d="M255.3,83.7l0.4-0.8c0,0-11.2,1.3-19.6,3.7c-8.4,2.5-14.4,7.5-19.9,23.3c0,0,1,0.1,1.3-0.5
		c0.3-0.6,6.5-13.3,6.5-13.3l3.8-3.9L236,88l5.1-1.7l5.3-1.2l6.3-0.7L255.3,83.7z"/>
	
		<linearGradient id="SVGID_12_" gradientUnits="userSpaceOnUse" x1="676.389" y1="96.6242" x2="714.7755" y2="96.6242" gradientTransform="matrix(-1 0 0 1 931.9082 0)">
		<stop  offset="0" style="stop-color:#D6D7D9"/>
		<stop  offset="0.7853" style="stop-color:#5B5C5E"/>
	</linearGradient>
	<path class="st18" d="M255.5,83.5l-0.9,2.7l-36,22.9l-1.5,0.6c0,0,3.5-14.1,13.1-20.1C236.4,85.6,255.5,83.5,255.5,83.5z"/>
	<path class="st19" d="M250.7,85.2c0,0-28.6,17.3-29.5,17.7C221.8,101.9,225.8,88.1,250.7,85.2z"/>
	
		<linearGradient id="SVGID_13_" gradientUnits="userSpaceOnUse" x1="676.7901" y1="91.8828" x2="733.6542" y2="91.8828" gradientTransform="matrix(-1 0 0 1 931.9082 0)">
		<stop  offset="0" style="stop-color:#FFFFFF"/>
		<stop  offset="0.6871" style="stop-color:#797B7D"/>
	</linearGradient>
	<path class="st20" d="M255.1,81.5c0,0-0.2,0-16.2,2.6c-16,2.6-18.9,12.4-21.6,17c-2.7,4.7-1,8-8,6.8c-6.9-1.2-10.6-6.1-11.2-10.1
		c0,0,0.5-6.3,8.4-14.4c5.1-5.2,19.2-7.4,19.2-7.4s6.1-0.7,9.2-0.5C238.2,75.9,249.1,78,255.1,81.5z"/>
	<path class="st21" d="M242.5,77.4c0,0-5.8-1.2-6-1.2c-6.2,0.6,1.9,1.5,1.9,1.5L242.5,77.4z"/>
	<g>
		
			<linearGradient id="SVGID_14_" gradientUnits="userSpaceOnUse" x1="693.7544" y1="75.7508" x2="696.8816" y2="81.8884" gradientTransform="matrix(-1 0 0 1 931.9082 0)">
			<stop  offset="0" style="stop-color:#1B75BC"/>
			<stop  offset="3.990554e-03" style="stop-color:#1E70B9"/>
			<stop  offset="1.931729e-02" style="stop-color:#2361AE"/>
			<stop  offset="3.668058e-02" style="stop-color:#2853A4"/>
			<stop  offset="5.629577e-02" style="stop-color:#2A479D"/>
			<stop  offset="7.920264e-02" style="stop-color:#2C3D98"/>
			<stop  offset="0.1075" style="stop-color:#2E3695"/>
			<stop  offset="0.1473" style="stop-color:#2E3293"/>
			<stop  offset="0.2577" style="stop-color:#2E3192"/>
			<stop  offset="0.4125" style="stop-color:#2E3293"/>
			<stop  offset="0.5008" style="stop-color:#2D3795"/>
			<stop  offset="0.5723" style="stop-color:#2C3F99"/>
			<stop  offset="0.6348" style="stop-color:#2A4AA0"/>
			<stop  offset="0.6915" style="stop-color:#2658A8"/>
			<stop  offset="0.7432" style="stop-color:#2168B3"/>
			<stop  offset="0.7791" style="stop-color:#1B75BC"/>
			<stop  offset="0.9939" style="stop-color:#00254A"/>
		</linearGradient>
		<ellipse class="st22" cx="236.2" cy="79.6" rx="3.5" ry="3.2"/>
		
			<linearGradient id="SVGID_15_" gradientUnits="userSpaceOnUse" x1="697.7345" y1="79.8839" x2="691.8135" y2="79.8839" gradientTransform="matrix(-1 0 0 1 931.9082 0)">
			<stop  offset="0" style="stop-color:#00355F"/>
			<stop  offset="0.5215" style="stop-color:#2E3192"/>
			<stop  offset="1" style="stop-color:#001D41"/>
		</linearGradient>
		<circle class="st23" cx="237.1" cy="79.9" r="3"/>
		<circle class="st24" cx="237.5" cy="79.4" r="1.2"/>
		<circle cx="237.5" cy="79.3" r="1.1"/>
		<circle class="st25" cx="237.5" cy="79.4" r="1.4"/>
	</g>
	<path class="st17" d="M215.4,86.5c0,0-6.7,6.6-9.1,13.1C206.3,99.6,207.4,92,215.4,86.5z"/>
	
		<linearGradient id="SVGID_16_" gradientUnits="userSpaceOnUse" x1="704.5349" y1="75.6732" x2="705.5087" y2="94.2562" gradientTransform="matrix(-1 0 0 1 931.9082 0)">
		<stop  offset="4.907980e-02" style="stop-color:#F1F2F2"/>
		<stop  offset="0.5092" style="stop-color:#FFFFFF"/>
		<stop  offset="1" style="stop-color:#FFFFFF;stop-opacity:0"/>
	</linearGradient>
	<path class="st26" d="M220.5,92.5c0,0-11-2.3-19.3,0.5c0,0,3.9-9.3,14-13.7c4.2-1.5,9.8-3.1,15.2-3.3c0,0,3.1-0.1,6.6,0.2
		c-3.1,0.1-3.9,2-3.9,2l-1.5,0.2l0.9,0.5l-4.6,1.2l0.3,0.2l4.6-1.3l1.2,0.5l7-1l-1.3-0.6l3.7-0.3c0,0,8.7,2.7,9,3.5
		C252.4,81.1,224.9,83,220.5,92.5z"/>
	
		<linearGradient id="SVGID_17_" gradientUnits="userSpaceOnUse" x1="714.7468" y1="103.2622" x2="730.7075" y2="103.2622" gradientTransform="matrix(-1 0 0 1 931.9082 0)">
		<stop  offset="1.226990e-02" style="stop-color:#FFFFFF"/>
		<stop  offset="1" style="stop-color:#FFFFFF;stop-opacity:0"/>
	</linearGradient>
	<path class="st27" d="M217.2,99.3c0,0-1.8,4.7-2.2,5.3c-0.4,0.6-0.6,4-6.9,1.9c-5.9-2-6.9-5-6.9-5S206.9,98.8,217.2,99.3z"/>
</g>
<g>
	
		<linearGradient id="SVGID_18_" gradientUnits="userSpaceOnUse" x1="1604.8499" y1="63.4249" x2="1619.9344" y2="63.4249" gradientTransform="matrix(-1 0 0 1 1678.5742 0)">
		<stop  offset="0.1779" style="stop-color:#000000"/>
		<stop  offset="0.7423" style="stop-color:#000000"/>
	</linearGradient>
	<path class="st28" d="M71.6,54.1c0,0-1.3-4.7-13,5.4v9c0,0,13.8,8.5,13.9,4.1c0,0-0.2-3.1,0.7-5.4c0.9-2.4,0.4-4.4-0.7-7.6
		C71.7,56.7,71.6,54.1,71.6,54.1z"/>
	<path class="st29" d="M71.1,55.4c0,0-1.2-4.2-12.5,4.9v8.1c0,0,13.3,7.6,13.3,3.6c0,0-0.2-2.8,0.7-4.9c0.9-2.1,0.4-3.9-0.6-6.9
		C71.2,57.8,71.1,55.4,71.1,55.4z"/>
	<path class="st30" d="M59.2,59.8c0,0,12.7-10.3,12-4.2c0,0,0.2,4.3,1.4,5.9c1.2,1.5-0.4,8.5-5.1,8c-4.7-0.5-9.5-3.7-9.5-3.7l0.2-5
		L59.2,59.8z"/>
	<path class="st31" d="M58.2,60.6c0,0,12.1-9,12.4-4.4c0.2,4.6,1.8,4.9,1.8,4.9s-1.1-3.1-1.1-5.4C71.3,53.3,70.2,51.3,58.2,60.6z"/>
	<linearGradient id="SVGID_19_" gradientUnits="userSpaceOnUse" x1="36.0296" y1="63.4857" x2="51.1143" y2="63.4857">
		<stop  offset="0.1779" style="stop-color:#000000"/>
		<stop  offset="0.7423" style="stop-color:#000000"/>
	</linearGradient>
	<path class="st32" d="M38.1,54.1c0,0,1.3-4.7,13,5.4v9c0,0-13.8,8.5-13.9,4.1c0,0,0.2-3.1-0.7-5.4c-0.9-2.4-0.4-4.4,0.7-7.6
		C38,56.7,38.1,54.1,38.1,54.1z"/>
	<path class="st29" d="M38.6,55.5c0,0,1.2-4.2,12.5,4.9v8.1c0,0-13.3,7.6-13.3,3.6c0,0,0.2-2.8-0.7-4.9c-0.9-2.1-0.4-3.9,0.6-6.9
		C38.6,57.8,38.6,55.5,38.6,55.5z"/>
	<path class="st30" d="M50.5,59.9c0,0-12.7-10.3-12-4.2c0,0-0.2,4.3-1.4,5.9c-1.2,1.5,0.4,8.5,5.1,8c4.7-0.5,9.5-3.7,9.5-3.7l-0.2-5
		L50.5,59.9z"/>
	<path class="st31" d="M51.5,60.7c0,0-12.1-9-12.4-4.4c-0.2,4.6-1.8,4.9-1.8,4.9s1.1-3.1,1.1-5.4C38.5,53.3,39.6,51.3,51.5,60.7z"/>
	<linearGradient id="SVGID_20_" gradientUnits="userSpaceOnUse" x1="39.4539" y1="64.0704" x2="70.413" y2="64.0704">
		<stop  offset="1.226990e-02" style="stop-color:#000000;stop-opacity:0"/>
		<stop  offset="8.337338e-02" style="stop-color:#000000;stop-opacity:0.1187"/>
		<stop  offset="0.5153" style="stop-color:#000000;stop-opacity:0.84"/>
		<stop  offset="0.9315" style="stop-color:#000000;stop-opacity:0.1187"/>
		<stop  offset="1" style="stop-color:#000000;stop-opacity:0"/>
	</linearGradient>
	<path class="st33" d="M70.4,64.1c0,3.5-7.4,0.9-15.8,0.9c-8.4,0-15.2,2.5-15.2-0.9c0-3.4,6.7-1.3,15.2-0.7
		C63.2,62.4,70.4,60.9,70.4,64.1z"/>
	<path class="st29" d="M51.1,59.6c0,0-0.1,0.1-0.2,0.3c-0.5,0.9-1.7,3.9,0.2,8.7c0,0,2.2-0.7,7.6-0.1c0,0,1.9-2.8,0-9
		C58.7,59.5,54.3,60.1,51.1,59.6z"/>
	<linearGradient id="SVGID_21_" gradientUnits="userSpaceOnUse" x1="54.8818" y1="60.2917" x2="54.8818" y2="68.0519">
		<stop  offset="0.1104" style="stop-color:#545456"/>
		<stop  offset="0.362" style="stop-color:#545456;stop-opacity:0"/>
	</linearGradient>
	<path class="st34" d="M51.2,60.4c0,0-1.4,3.6,0.4,7.7c0,0,2-0.6,6.8-0.1c0,0,1.7-2.4,0-7.7C58.4,60.3,54,60.8,51.2,60.4z"/>
</g>
</svg>
