<svg id="Layer_1" data-name="Layer 1" xmlns="http://www.w3.org/2000/svg" viewBox="0 0 704.76 151.96"><defs><style>.cls-1{fill:#1e2b4d;}</style></defs><title>Qudol_logo_indigo</title><path class="cls-1" d="M161.87,260.6c-.39-18.94-11.8-32.86-31.84-32.45A33,33,0,0,0,116.93,231L112,225.57l-9.87.2,8.44,9.38a24.11,24.11,0,0,0-2.85,3,36.58,36.58,0,0,0-5.29,11.15,38.83,38.83,0,0,0-1.57,13c.18,8.82,1.73,17.16,7.57,24,5.94,7.06,14.18,9.92,23.28,9.73,8.92-.19,17.4-3.21,23-10.32C160.58,278.28,162.06,269.88,161.87,260.6Zm-30,29.49c-16.27.33-22.08-13.8-22.36-27.59-.13-6.16.83-13.26,4.12-18.75a23.9,23.9,0,0,1,2.11-2.85l8.42,9.35,10-.2L121.62,236.2a19.73,19.73,0,0,1,8.63-2.08,20.67,20.67,0,0,1,17.64,8.37c4.06,5.16,5,13,5.18,19.29C153.35,275.58,147.94,289.75,131.86,290.09Z" transform="translate(-36.9 -146.61)"/><path class="cls-1" d="M194.15,203.63c-.24-8.92-3.33-17.38-10.47-22.89-7.52-5.86-15.93-7.29-25.21-7-18.93.52-32.78,12-32.23,32.06a33,33,0,0,0,3,13.2l-6.69,6.14.27,9.88,10.63-9.7a23.64,23.64,0,0,0,2.95,2.74,36.48,36.48,0,0,0,11.18,5.21,38.8,38.8,0,0,0,13,1.48c8.82-.24,17.15-1.85,24-7.74C191.59,221,194.4,212.73,194.15,203.63Zm-33.41,22.44c-6.16.17-13.26-.74-18.78-4a23.61,23.61,0,0,1-2.76-2l8-7.28-.27-10-12.48,11.46a19.66,19.66,0,0,1-2.2-8.72,20.68,20.68,0,0,1,8.25-17.7c5.13-4.09,12.92-5.14,19.26-5.31,13.78-.38,28,4.94,28.44,21C188.61,219.79,174.52,225.69,160.74,226.07Z" transform="translate(-36.9 -146.61)"/><path class="cls-1" d="M124.45,205.73a36.47,36.47,0,0,0,5.52-11,38.78,38.78,0,0,0,1.84-13c0-8.82-1.38-17.19-7.08-24.17-5.79-7.17-14-10.21-23.08-10.21-8.92,0-17.47,2.85-23.17,9.84-6.07,7.35-7.72,15.73-7.72,25,0,18.94,11.12,33.09,31.16,33.09a33.54,33.54,0,0,0,12.27-2.21l5.67,6.52h9.88l-8.91-10.32A23.58,23.58,0,0,0,124.45,205.73Zm-5.79-5.7a23.34,23.34,0,0,1-2.8,3.49l-7.64-8.85h-10l11.43,13.16a20.15,20.15,0,0,1-7.8,1.49,20.67,20.67,0,0,1-17.46-8.73c-4-5.24-4.78-13.05-4.78-19.4,0-13.79,5.7-27.85,21.79-27.85,16.27,0,21.79,14.25,21.79,28C123.17,187.53,122.06,194.61,118.66,200Z" transform="translate(-36.9 -146.61)"/><path class="cls-1" d="M109.63,219.57l-.36-9.87-10.09,9.37a24.05,24.05,0,0,0-4.74-4.83,36.58,36.58,0,0,0-11.23-5.12,38.82,38.82,0,0,0-13-1.36c-8.82.32-17.13,2-23.91,8-7,6-9.69,14.33-9.36,23.43.32,8.91,3.48,17.36,10.67,22.79,7.57,5.8,16,7.15,25.27,6.81,18.93-.69,32.67-12.32,31.94-32.35a34.34,34.34,0,0,0-2-10.48ZM98.84,236.71a20.65,20.65,0,0,1-8.09,17.77c-5.09,4.14-12.87,5.26-19.21,5.48-13.78.51-28-4.68-28.63-20.76-.59-16.26,13.45-22.29,27.23-22.79,6.16-.22,13.27.62,18.81,3.83a22.22,22.22,0,0,1,4.81,3.87l-8.62,8,.36,10,12.24-11.44A20.77,20.77,0,0,1,98.84,236.71Z" transform="translate(-36.9 -146.61)"/><path class="cls-1" d="M358,282.94v13.78H305.34c-8.64,0-17.27,1.85-26.11,1.85-20.77,0-39.48-6.58-52.85-23-11.1-14-16.45-35-16.45-52.85,0-40.92,25.7-76.08,69.3-76.08,21.18,0,37.63,6.37,51,23.24,11.31,14.6,16.24,33.93,16.24,52.23,0,21.18-9,53.87-30.23,62.92A114.76,114.76,0,0,1,328,283.35c4.52-.21,8.84-.41,13.37-.41Zm-128.31-58.4c0,7.61,1.23,13.78,3.08,21,3.29,13.16,8,21.8,18.71,30.64,7.61,6.37,17.07,8.43,26.94,8.43,33.93,0,48.32-33.93,48.32-63.13,0-29.61-14.19-60.45-48.12-60.45C243.45,161,229.67,194.11,229.67,224.55Z" transform="translate(-36.9 -146.61)"/><path class="cls-1" d="M438.58,275.54c-5.14,15.83-14.39,22-31.46,22-15.22,0-28.38-6.17-32.28-22-1.44-5.76-1.44-12.13-1.44-21V200.9H356.54V188.77h33.52v65.8c0,14.39,2.26,30.64,20.77,30.64a25.53,25.53,0,0,0,23.44-15c3.7-7.61,4.32-17.68,4.32-25.91V200.9h-18.1V188.77h34.75v94.38h17.07v13H438.58Z" transform="translate(-36.9 -146.61)"/><path class="cls-1" d="M556.61,274.72c-5.55,15.22-19.12,22.82-35.37,22.82-14.39,0-28.58-7.4-37.42-22.82-4.52-8-7-19.33-7-34.13,0-28.17,13.16-55.11,44.83-55.11,14.6,0,26.32,6,33.93,18.71.21.82.82,1.23,1,2.06V161H538.93V148.88h34.34V283.15h17.27v13H556.61Zm-5.35-4.94c4.94-9.66,5.35-18.3,5.35-28.79,0-18.71-7-42.15-29.4-42.77-11.72,0-19.12,4.11-25.7,13.78-4.93,7.2-7.2,18.3-7.2,26.94,0,7.2.41,14.19,2.26,21,4.11,14.39,13.37,25.09,29.2,25.09A28.62,28.62,0,0,0,551.26,269.78Z" transform="translate(-36.9 -146.61)"/><path class="cls-1" d="M604.1,201.1c9.67-10.69,23.24-15.63,37.63-15.63,33.72,0,48.73,25.91,48.73,56.34,0,30-16.66,55.73-49.56,55.73-16,0-29-4.73-38.45-18.1-8.23-11.72-11.72-24.26-11.72-38.45C590.74,226.4,594,212.21,604.1,201.1Zm11.72,70.12c5.76,8.23,14.39,13.78,24.88,13.78s21-7.2,25.7-16.24c4.52-8.43,6-18.71,6-28.17,0-20.15-7-42.36-31.67-42.36-11.72,0-20.36,5.76-26.32,15.22-4.52,7.81-6,19.12-6,27.76C608.42,251.07,609.66,263,615.83,271.22Z" transform="translate(-36.9 -146.61)"/><path class="cls-1" d="M691.49,296.1v-13h17.07V161H691.49V148.88h33.72V283.15h16.45v13Z" transform="translate(-36.9 -146.61)"/></svg>